<mxfile host="app.diagrams.net" modified="2024-08-03T15:39:37.851Z" agent="Mozilla/5.0 (Windows NT 10.0; Win64; x64) AppleWebKit/537.36 (KHTML, like Gecko) Chrome/127.0.0.0 Safari/537.36 Edg/127.0.0.0" etag="txcInBwpaFclvdXkF3X3" version="24.4.13" type="github">
  <diagram name="第 1 页" id="Fd-byJZFKrY18sK7Ns8W">
    <mxGraphModel dx="1050" dy="611" grid="1" gridSize="10" guides="1" tooltips="1" connect="1" arrows="1" fold="1" page="1" pageScale="1" pageWidth="827" pageHeight="1169" math="0" shadow="0">
      <root>
        <mxCell id="0" />
        <mxCell id="1" parent="0" />
        <mxCell id="xbeDdw1KXENtgyN8etVA-6" style="edgeStyle=orthogonalEdgeStyle;rounded=0;orthogonalLoop=1;jettySize=auto;html=1;exitX=1;exitY=0.5;exitDx=0;exitDy=0;entryX=0;entryY=0.5;entryDx=0;entryDy=0;" edge="1" parent="1" source="xbeDdw1KXENtgyN8etVA-2" target="xbeDdw1KXENtgyN8etVA-3">
          <mxGeometry relative="1" as="geometry" />
        </mxCell>
        <mxCell id="xbeDdw1KXENtgyN8etVA-2" value="诊断对象" style="rounded=0;whiteSpace=wrap;html=1;fontSize=18;" vertex="1" parent="1">
          <mxGeometry x="130" y="180" width="100" height="50" as="geometry" />
        </mxCell>
        <mxCell id="xbeDdw1KXENtgyN8etVA-7" style="edgeStyle=orthogonalEdgeStyle;rounded=0;orthogonalLoop=1;jettySize=auto;html=1;exitX=1;exitY=0.5;exitDx=0;exitDy=0;entryX=0;entryY=0.5;entryDx=0;entryDy=0;" edge="1" parent="1" source="xbeDdw1KXENtgyN8etVA-3" target="xbeDdw1KXENtgyN8etVA-4">
          <mxGeometry relative="1" as="geometry" />
        </mxCell>
        <mxCell id="xbeDdw1KXENtgyN8etVA-3" value="&lt;div style=&quot;font-size: 18px;&quot;&gt;测量&lt;span style=&quot;background-color: initial; font-size: 18px;&quot;&gt;空间&lt;/span&gt;&lt;/div&gt;" style="rounded=0;whiteSpace=wrap;html=1;fontSize=18;" vertex="1" parent="1">
          <mxGeometry x="310" y="180" width="95" height="50" as="geometry" />
        </mxCell>
        <mxCell id="xbeDdw1KXENtgyN8etVA-8" style="edgeStyle=orthogonalEdgeStyle;rounded=0;orthogonalLoop=1;jettySize=auto;html=1;exitX=1;exitY=0.5;exitDx=0;exitDy=0;entryX=0;entryY=0.5;entryDx=0;entryDy=0;" edge="1" parent="1" source="xbeDdw1KXENtgyN8etVA-4" target="xbeDdw1KXENtgyN8etVA-5">
          <mxGeometry relative="1" as="geometry" />
        </mxCell>
        <mxCell id="xbeDdw1KXENtgyN8etVA-4" value="特征空间" style="rounded=0;whiteSpace=wrap;html=1;fontSize=18;" vertex="1" parent="1">
          <mxGeometry x="490" y="180" width="105" height="50" as="geometry" />
        </mxCell>
        <mxCell id="xbeDdw1KXENtgyN8etVA-5" value="异常模式" style="rounded=0;whiteSpace=wrap;html=1;fontSize=18;" vertex="1" parent="1">
          <mxGeometry x="690" y="180" width="100" height="50" as="geometry" />
        </mxCell>
        <mxCell id="xbeDdw1KXENtgyN8etVA-9" value="信号采集&lt;div style=&quot;font-size: 14px;&quot;&gt;机理分析&lt;/div&gt;" style="text;html=1;align=center;verticalAlign=middle;resizable=0;points=[];autosize=1;strokeColor=none;fillColor=none;fontSize=14;" vertex="1" parent="1">
          <mxGeometry x="230" y="158" width="80" height="50" as="geometry" />
        </mxCell>
        <mxCell id="xbeDdw1KXENtgyN8etVA-10" value="&lt;div style=&quot;font-size: 14px;&quot;&gt;特征提取&lt;/div&gt;&lt;div style=&quot;font-size: 14px;&quot;&gt;特征选择&lt;/div&gt;" style="text;html=1;align=center;verticalAlign=middle;resizable=0;points=[];autosize=1;strokeColor=none;fillColor=none;fontSize=14;" vertex="1" parent="1">
          <mxGeometry x="402" y="158" width="80" height="50" as="geometry" />
        </mxCell>
        <mxCell id="xbeDdw1KXENtgyN8etVA-11" value="&lt;div style=&quot;font-size: 14px;&quot;&gt;模式识别&lt;/div&gt;&lt;div style=&quot;font-size: 14px;&quot;&gt;异常诊断&lt;/div&gt;" style="text;html=1;align=center;verticalAlign=middle;resizable=0;points=[];autosize=1;strokeColor=none;fillColor=none;fontSize=14;" vertex="1" parent="1">
          <mxGeometry x="595" y="158" width="80" height="50" as="geometry" />
        </mxCell>
        <mxCell id="xbeDdw1KXENtgyN8etVA-12" value="" style="shape=image;verticalLabelPosition=bottom;labelBackgroundColor=default;verticalAlign=top;aspect=fixed;imageAspect=0;image=data:image/png,iVBORw0KGgoAAAANSUhEUgAAAvAAAAFhCAMAAAAhqm4zAAAAAXNSR0IArs4c6QAAAARnQU1BAACxjwv8YQUAAAMAUExURf////z8/P7+/tXV1ba2trCwsK+vr66urrGxscDAwPX19fr6+v39/Xl5eUlJSVVVVVdXV1hYWFxcXExMTFNTU9PT0/b29mJiYoGBgcXFxcrKysvLy8zMzNDQ0KGhob29vfn5+fv7+1ZWVqCgoM7OzmVlZbKysvf3919fX6KiotHR0Wlpabq6umpqar6+vvj4+KioqKSkpM3NzWtra7m5uWBgYJ6enmxsbNra2tfX19vb29TU1N/f37u7u3d3d3Nzc3t7e3Fxcdzc3PT09N3d3ZSUlGFhYZaWlnZ2dtnZ2W9vb3BwcNLS0t7e3qysrKWlpaenp5WVlYmJiaurq4+Pj1paWnx8fHV1daOjo319fYyMjEtLS4KCgrOzsycnJ09PT5qamvHx8T8/P8/Pz4qKimhoaODg4J2dnW5ubiUlJSMjI2RkZOvr6+np6fPz86mpqUFBQUpKSk5OTlBQUDIyMi4uLkREREJCQk1NTUdHR0VFRYiIiGdnZ5iYmJycnNbW1rS0tEhISH5+fvDw8O7u7tjY2FFRUS8vLxgYGI2Njaqqqq2trZubmxcXFysrK4aGhkZGRqampoODg/Ly8o6Ojl5eXu/v73h4eOfn521tbUNDQyAgICkpKbW1tbe3t4SEhOTk5Hp6epKSkuXl5ZGRkR4eHn9/f11dXezs7B0dHSYmJnR0dL+/v7y8vDw8PIuLi2ZmZubm5kBAQCgoKBISEj4+PoCAgO3t7RQUFHJycurq6uLi4oeHhyQkJGNjY+Hh4YWFhejo6BMTE5mZmVRUVCoqKpCQkLi4uMPDwzk5OZOTkwsLCxERETs7O5+fn1tbW8TExFJSUjQ0NOPj4ywsLCIiIiEhIR8fH8HBwcLCwj09PVlZWZeXlzU1NTo6Ojc3NzY2NsjIyDAwMDg4ODMzMw8PDxAQEBoaGsnJyS0tLRkZGcfHx8bGxhwcHBsbGzExMQoKCgkJCQ4ODhYWFhUVFQAAAAUFBQ0NDQwMDAYGBggICAQEBAICAgcHBwMDAwAAAMqfedkAAAEAdFJOU////////////////////////////////////////////////////////////////////////////////////////////////////////////////////////////////////////////////////////////////////////////////////////////////////////////////////////////////////////////////////////////////////////////////////////////////////////////////////////////////////////////////////wBT9wclAAAACXBIWXMAABcRAAAXEQHKJvM/AABskklEQVR4Xu1dy4GruhKcDEiAVGBFTGzYsiIacmDrrTMghbN/Vd2tD0YgzOB5c8+hbIMQ+qtVtBqBv27cuHHjxo0bN27cuHHjxo0bN27cuHHjxo0bNz6FpqqGavjPfiurxo0bxzC2xX8YbVFaPW7cOID+a6zL/zCG8ab4G2+hHczxn0Q5/qeLf+OH0UOlmcz9n0RJhkctbtw4hr4Y/svy0twqzY3joKgX/3GV5hb4G28BAv8fpvhbpbnxJoprdPiU0C380lL5XVm9Gf7Gm/iWSmPyyl3flHaMTVli6w64gcdXD7f37b80vHmcxS3wN95EMX1L4iBzje7rkQKs8ks3IXJOxzAylEi3jAxgKlzGbn8Ct8DfeBPfm7SCtbtaBLgca8g0ZLcsy6aum6YZpiHYPLvCHBR+8r/46Agw/zO4Bf7Gm/iWDi+yOtbYN/UwqeTXddUVbT10z6LF1aMciKpoZT8xSCf8P9kQ+JbI3wJ/40180ywJWe0wZBpy+USOp/xXz+cAtYZK+9cwt20xP1ts8WsHKDRD12AIjO1QDZR/CXYSt8DfeBPfs9KIrILfKe9lM9VT81W31QA+h1ojIQSi0+uklQrNVwXRnx/4dfS6Bf7Gz+F7VhpRWZqvSUh+AJ0PX92jLZ7PYuhEiYF0Q55ViVGo7k4/GQDfk/hb4G+8ie8wPAV1ah8dHU2NhEjiYPO+bcuv+klNRlPvwPrQYhpGgEIjdp0pGgSncQv8jTfxTSsNvlDav5qqhtiLINd13z2fXQ/BH0HilHGyPvA0EZ/aChhlKwab87gF/sab+LYdHhIOGYYuI4o8Dtu66sa6nmrTZJC+OkSJwXE3t5jJPh/YzIh7qzQ3fhDfYXgIKr5keOgyotMA9WPAGBgqjAOZt1Ke9UYUxb5vhmLsEbyvO2yoA31D3m+Bv/Euvr+WZuyoy1Dee1oZa0xK5TcqsUOcm65jQDmsCtFs+o6DgfiGuN8Cf+NtfFuH/xqLboIOP6nMC+HTamMCTw43wZcdqJ2+UPllNY34nJf5W+BvvInv2uGhrzwqsUdSh4fo0g7PNyFA+iHalOVmFIL/6nT1zFSA3+lTcY3BdzT4W+BvvI3v2uEhxxTeXjiemNqCnyeIXlV3NViWjbA6R8TYjzOHRDW2Ytf5Bm6Bv/EmvmulEYZuqrLWu6b0IYTVqcpTgaf3UFPeGWSoq+cfminb+eFXTJ7ELfA33sT3dHhDN0OlWYBavG1sIHDvMJgf93Ccl/pb4G+8ie9baYjXeacJMTZBnOMgKb8zuAX+xpu4hOGJF9m1Q92t5Nqf/Q69A7fA33gTFzG8Cq8D3DxQ3rdNfBGAW4JHAc7hFvgbb+IKht8W2+AJ10sIHSG6PYtb4G+8ie+vpVEsBVqOeKxULq7FaXcku+jMm7gF/sabuESHfxFbuNY+fkvY6XgQnMIt8DfeAMXtGh0+kmUH9cHWCN48Etg8kcct8DfehDK8iuS5Xwwcq5edeD2vSPjS652f4Rb4G2+hF4aPJOgE9mK/yCfhD51jL/4mLJK+LvtUCjf+QUBSLlJp/k+4Gf7GmyhqLuMiZI3jme9L3LB3cAfe3zmW+7e+uukKCPxN8DcOAqLSyetiPga+jONzKFq+9OPGjePo+4Zffvh99ydft18e4dP03WPC1n30u7V/6ydfJH3z+43D+AFZ6Z4/QMG3zN84CBGVT8pL9/zwrPKm+Bu/CR8X+Bs3fhO651XLj2/c+A+ge9wMf+Mfwq3S3PincDP8jX8Ktw5/45/CrdLc+KdulPzDKs19fyAGWuOfaBBh+H+v61njW+BTcC3z//59Ct1jsORfc/zbf4Tb//OwhvDt8dpAP7+H6yMb0+HhUjjH374Pjhv/FP7pSest9BGsMbBTl2uc/9f+Q+CkVbPA1jv+9r1d4W54/DONMf2rVhr28C3yMfqvpmlK/Gxbyuf/s//UpmnqZycOuiUz2cjpv3gv/895y7sHWoLfoR2LsQBso0f/j/2nNsU4P6SSciyZWY50/L37+n7wMIFmrMuqKvFxm//j3jmv3tQFn7emy/nI5q/dY1NW02WvZP6r0NTORO3hr4R24seO/f7qzTTqv9rIQQQfwk78Ncfc2D/WunM3FBB4c/3FmOrv/o3TfxCNvB7qxguaWl7cG9+pWeLnjuGSg6s3X1+DMTwAH/nqfoG/7NgE/jXUv45/g+H17+b/HbC6N8O/QoRA/6t9KQ84ooftfuz4M2DKyvCJPCxn2/01x4Jbh0/iH2H4f0qHVxHXV7zeeEHCSvP3YfjXJq3s0lulSaK8dfi/DlpZJ/D/VNV3IS1hVpq/G5GV5t+B0+FvLKA6/F8u87cd/oaDWmn+cvxjDH+rNDv4R+60/oO9fltpkvhXdPh/SuKlsqbD3wTvoc1y6/B/HbQ3bx0+iVuH/1tx6/BJ3Dr834qb4ZNQHf4vl4d/1Epz2+GXkHb5Rxj+31Vp/sFr2y5uHf4vhFLZzfAp3Az/98GpNNqzN8UvYHb4v7tV/mkrzQ0HvfDdDP+X4r7TmsQHdPjTV4uPXWr+aR3+4hb9SAclgZyuzgzpicBfXolTCV5eCo8P2eEvSpTJ4HdZESWhXlWayxIVXJva/wcfWVpwOrkPtejnGB4F/q1S8DEd/qcq3AONfK8CkyoxaXXuq37E+6u1RHY06rW/vp/G0jkvBBLUYn8Xlt51kKqWo/asb4crfoSV+tPoq66bOvy4uQxT3RaaLL+y+fZeD0692LAcri2K7LupmO34WkzXPA7cs9IXwiqNnlVZkapr/b+7l+R+6JWVTV10NTOUzXUYNT1sXcLf3dNRF+/PhcHvU6GJbCV9cl+PshX3hRjbSyi+b6V4l8FXOlT4pT3O7bHh96deWVmOnV1S/gto6u6MIHS1u27+B/A1tJdMDfp2uF6r+RgayKEV/LP4b71eoH//uRKE77sfasxrUFHgv1/gpv0v/V0DetZcHwbmIFe07g/hhMAD/X/rDpEI/PfxYYG/UGaYVNP90CNy5bGRtVGYhDe93M85dOd9Ce8IZxfn0zgp8LsML6f0fLTFRo+ApbcDnfhFPls4ECRGJTr8t5EQeE3Xp+4ccXbijsLZOe9Dh+1i+GNzuONFr8puo6d/bLVhXuC1fL6Q+EmZZa8/c5hP7IWv26gjeMaQQzu/i3MCn1sD4JKUEtgBd1JHX3jbcKcff+ACUWUWT4FrIXWuz2/iIobv0wwvRbAKiFP38pVj77ZABvVXR5wI/fWEd/hq8px8Pei2HJc42bPv4yjDS0m9SxxuFxXUtQG86Bt2jGZHCu8Sf9nK+RAihTPNgjT3GN6yjDbm5E6c6nYe5hXO2oGe9q0jwIGLAPBoeT6Nyxi+lDw9mL/uBLL355cVWp4wt/rG5wic1lpJOHEEV/jJN3bLgUK8fw3Du6ItusoaQaomxdWf7PRMylOc2LwkFY5j/yQ+w/AskmxdAYILiEq7KKi44aN+3scj8pFmCuEyuGjSmmZ4FmP5dTUgvLe4Iyc36o68tFILb2Dl0IianPrFWRp+EcOjdNIBuk1Aas2TPBtC0FeOeI5uVtOqql4RfCZ2nABPnWsWMPxrfhG0QFZWuZPrsoj28NcjbB2h+fN0mWfwsoOoSnAszm/hkzq83qm22iyzER8tILf8Ym9hbOcQDumy4Pj56C4DfLT3uRFYoOChwKTVXB+GCPxr7i+Yar9FyJ7/XqjQBhnG/quq+69B1lL1do711NfrljiPEAVjMz4+ZUS5mshXWeh+Fyd5YFfgDWgHlMQ1u69FU0qGXSfeLL1sF53GvS4kG0bxUFSspIZDeIlRxee3cKEO70oo4EHB+5n9yKGAw0UtWcqvUWz3QoI4lnViFkL+iZQ7esjPpy6NI/XrRFLCMTYqFQIc0U1BCpENP2Y6FrPkHlj/kf1VF9ppwyxo8UPF4DW1KG7byw/dpadn1nMQrpogyozG1Az9BPE3UNK5e3Inzm18QODZ9KxeUXNX1HQjxtOqMc9yn2KUnpSAUoCpY83lUAtUiyjXoVoIrN0vGKST2VR5fIzh+76ZBxS4bLHl8ajdyB/DQr7b6Wusenc/u0UHd88WAdpn9dUh2HOQHUGi1Oqz6aR6X7XwgraFVaJXP0KJ86t7bQSG/D1WGsj3k3Vunw+RcDJ82dQzWKFUMRqKSk4+H0/WqOzmppvLBpQ+UJaHtiIdVIhh/ID98JS9XgeE0ZrZWmgXH2J4dOLj2QIPCDolXP6BtyhYSXZpP44oOC4AaImnNAJHwCSjgpXuu0L+sbdrUSVfSTSEQgKw4MMxgc+U9hhMh4/aq0AtKbxSS55kF5Ztxy2DNXVVDLSHFx0KDR8KflFLFSD7fVVyN45snAoxRPQRpFZBhmxrK9Rot9AKNdoEGfAaoiMhIruA36PDo6hjOwxDVRRl5XvCFxq16tqyZIfzJ70KSUfN0Llk+ArDpZ3HvuKu+CopVqAUEa+2Lb4aUBEvkQPGiMj/Hk7r8DuxcKpHJdsClRzamj1jUjJ6buownud2QFeWTSG9RvZGV1ZoHdb18Sxa0MHEStYY3FJHq+TcYcxA70P1OCA4goRgt/Axhi/Laq6rYZjmSWqp8MEa1KbFma9mxLieyx7ijWteJ+sZhexB/xB4aRXqfmg1jIEeLYK6IT20Emv7VetuslbgDkAfQO9DI8h4iHuaRflZHT6D6VkAQt8OXuAr1OmJLuVCWRGVvsd1ewJJOYGfIRRdW41VWXUzrqdVhWvAgMaVP7ttajRwU6BRHkgJWpOluwbPnOSBI3daa1SyLZ5sDZeF6THMdiyLAsOdFNWJwHMupoTFY4z1qhyLYSwxAApwIQdCy//xlTpWEBxQKSrISmqq2/X4pJUGTYxqQj8JwDhWdOgEXsyrriurtoaKiqMSwi8XBYQqRNrHbkIjBTKYGKxlw9VgvrLo0ApVCVpgF6MV4EcHUkUjgAoKaQRcMCy+4ud0+JzAoxgQVzI8uxfyjPGO6xQVeo78pqxQTw5mfBECNYJ6g28HuadKA75nH8oIKU2Pr8KVvWcYjIJyekI+cktEzwg8ks/q8NgXIysJHZZ+ipEKPcmInSGqKC/eEHNWnUdB4OmaCtvRF3s5K+h5ooHw1zN6PyfOn2J4pNrPHSo5mbIjK+qaQta3s1eHdmxrzGK4cBHaTAOpLzGrwdVvbNgz8BOBb8ahwxQNrM54JSQDcs6W4VCuAezc/EWaRCAKDamAYyDoCoaf1eEzDdwpw0vRIdCQbFIVL1Vkq/JPAb2FSs8IOe7LEpcsaDlNVavAs/vKPyPpvzI9vZyh1stVEG4oNNw38aR2Cx+YtDqMWkkhronXYYxcXtlBXjLF095EG+A34BwOXwX+AXUXbgg8CzlRoaWShwMoNFJumqoEezrNtVaaZUbG8CT1XjSPuRU9BJ+yr4evYkATk71l3qo6vE7lURGo85BrnK07BgG1Ix4mA7wSWsug+g9qcGgRzbgT/UW6GAwgfkKBMeh7smffR47hqZ3VpsPTzSGqo1T26Jrpz7ObHiItQtzV2AjL9aWqNFBb+2luaJysRKj7rxIXNei8UnEkWkBd7CsqjTkl/jMCz3pBEQXDD61M16ia49uCuVhdsh+nrbRXoVtrXqx5vatFd6UfpqQ42TY0xkjd8ZkeqKMpMFCPRyQrhixEkVw3ceWd1ghSy7lGJad5wMEX64bfDAWGOge1aA6Spu5E8hGlqLsKRCBjAmdqTtkHyHrPtbxoJTRQVfUi8Cr0bKein3hBxDGq0WOaT34kj2CeVrMRoB1wJ4Xy+DU6PMhMdDTQAmf4QoAAaYygnbVuu+dcAbUIPK2QQwEJq2oyfPUEi2Ao9PAvwfCsaDUPaKnJjkqZEc5/OL/JPCX6CYFHgh2J7kn5pK2GhgcBaUwAxkcjzDPqajwm2+kP52S88k2oQvuA2ooruVph4deiSUptEw0h2h4AdUBrnsa1VhqPfkQjow9ZSzKzGw7C5USFMcuiNc04SYv142PCQOfoFiWEShnUNvK/toxNckTY+WO6uPRhyOg1j00LZmQCUl2d+2sjvKjsP8fwGTs8ZuLlyIEMTQWzL3YFCyYCT0cPOig4rQVhz6hkz9tQ6F/WV/7HdNBJK2i99dyle9Xom6pAFiWmAdxm2O9cs/R7rxeg6NHcAF1VegaFcIGtP6URKnY8et8LPM51CNyU4moRhCdRb2V4nmU4Wt7B/h20YKCWumbk+VM6PK/JZBqpq9aSP05axd1x6tXSKjtOJPh6fkCuOatpxdAuEIHHNQBXA2EEbKnPq8Czdmw0DHseE9oK3PpGGF8aQZJu/K29D+OAlYbiMiAUr1QObmbGG2mgtH4YRqjxuLzh0k2lAOyNHVtcNDah9sZ0eAQSEoT2jopi0g43ypGbsBIneWDXSqMJ8oraDeh1XsoB+rLvsBd9e6rZUNKtKvBQSFUBo71GdXhKOma41jQm8Dyqiodqe64cewSvDL9z/iBMh49BLf0LLNSMUWOLlYYBoaJ0ZcnrGyey2Iq7mDrR1dE2VMke1PBHXOoQAJI+IaDItrSMc4C2pPaopk5eeTQUD2mZ6NZrhP63CHzPpyf0ZisGIfteiut6Fa2CPq2okUONp7EJjG32NzG90jrJPpR4Zp0p5Qa3jAI+RE6iL3m32yWeBk+dZPicyQv161BJXKj7chwojRLeGF7dnQm76Ox0gQOmTm6hir9vE2N40epwxCrjMsBzgw7qXA0+ZqVp0Hq82cpagpukJH0wS4oKJyYap+bIpLXDBR6XBtT2iQHRguFpTifFYwZbQUEQOXdqjW78zv6snAKPWRxbSchnWUEe/RorzQC1etDbrBN4m01Cby/wwMT7L2PRPQcxK/Y0L3ZUUEQBQvfhAiDUrgzPuatIlGn0vMXaFOicho0j4bbxGYbvoFFCTxcjdDPqYgIgEvgOA559i2v+Q3y7B9IkDchTtjJpdQKvo3p5xGFf6cSGyaHi2/W4Vof3+UCHH/qaN1vntiwLr8OrwDMY7fMjG7jr9OUzVGfGSZReyH7TQlvFwH8yCNT06cHWoPjjvNIBakUHk4BwM5iwA9sHW1KBvMtHFlrQJ+DndPjMyJJlRWXDUd7QgVKxtxYCz3qg1rq6DPoMMM28AvKiP6BVcE2UGuraGqmzHDE85b5qaTZouiJnwDjTLChujuE5UJumLGqrLeOghKbSAD3JDwQFLbSBLzxpdhPlVRKfeEHDpJXVkos4pw1IAgqOdjzaaGpphgLX75dFKMJc38LaSsNaUmcRByiepe/lWW8LUbUizE0xQMhxClJOBQaEzqsfq4NRP6KXUA9UZqybCgMA10UOBEg37yiRDxBVGB4KDZMzrYcc0IlFDoo+oizwi+60ighTFs2UhM0ACpBzAgzfQZRCvhxAlg5AwRFrVIvZTlVgLsgRXtYIhchVTebBEfc4hoJT/KHtoGgfOW77hg6/FU/6XUanmJytkvCcxB6tZycaLdBr1Np7me7BZdcNro6CVoeLHNpk6OQi3qv2UqHKDEOzVQmdD1VEJSEEW4URXGuHj8FayvoxnX3QpxtEh0FA1L17dpzHoJH55jicmsjsNExCd0eoDh2Pi4TWY5DWkLcN8P0ySEHvN0O2h0kVF5I/5384YkmmsXqiEdjTf2IKojNLSlchL/ADZixQaTB4xSjJYjW19KMBU3rpZFRwrnvaJ9H7uhtK0gKA7sfklkJQUnuRI5V3CtAkVk01VG5Cwp4S+P3GxClQEK7zXD8269oxBi9HMWayyzCS4VIp8SmZeoqBUOipnsRZS1AlAFopuWcOvJuhlTRD5XaJPqbD6+pIWmJasL9mUnJ+Kk5IcldSu5fWQjc1UG/oLkaUWm5Bl5yrNloNu1cqU1ByPU9LK2BjrcAW4llcFxkUrdSPYAZijDQEwe9ZLYkK0l4HjdzVEXVQKRaguXCJE1/0lfTzBjQSxULCWhznFnxCpQF2dXiAvcg7TTTZiUIjxaIUa26BEHUrIqJCzo+Gt61KukWwdrJUZKt79UnjQivNC9iJvpYEyuuvaDhLJy7S4gN/OHhWgsKBeq76x64VelY8ZGu+monsLYAXHLd3ONmz7yMv8AusCxUqimuiOAN4bH4+VLQDxOUOg/cWPsHwq2xx7L3EzSPWTfayXUE8LYiFcM1h8cUdArjjBD7G8LY3RDXZqFSqlPCJosU7gC5LK3gKlkFV9tVtjl/zxFPq1Gb7eLycl0NsQmNwj2qbK8br8QKfYfhEfda5iI8vsZ1fHhnU004p6PIeizMJfMhKE2Be3Llf2AmiFll666Hswwl1hd40F93B07Zb+EU6PPFOWT5VbqZ7QuARXhrzULz3En+3KAehDP/txJXh30pGA0dRFrG/XaJNIOWf0+FtaQHyTH6XoMfK03utzuLAHy9OvCAOJ1CPly/9v8XwcWLxdwd29iWQHKrf8sxLOGDt48FTqd+1DE8gVSYcQ46dZ3TyNVwKCOODmeNItDU0IYn7gzr8sFdcV57YZW71ML+YQcW1ONQDdfhv8FKYO/Z6ATI50SyIldXh/XdxwGPdvHo6X4HzFz89cL/Ia/1VOEfYyz1af/40hOGjnNQpR+rlnJFXgPPnLrgXcN4+nPcR+GPzCgfBZYDzF1lpzkAqE9XoMpx7ezAZ/vrSUBI+UccrGf7q8jE9TfPilH+O4VWlQWauLvFPEVx0RkeC/bOGtXcQlmQs+kQ/x5+nmsUYfuuXw2uYI3GOAOloUi5B21OHvyAPs9IwpWVqG2nD231diDjkokzxCWIVcBlgsz701t8PMrysmviP4ITAM7zcKP3PQBn+3Xqu8Lq04Hej/7G3B+uqietwOLW3stXA5IETzdLzhqck8F/A16TrLL+Lhotk3gajpKMdTiwRMB/3x/7Rvhnnehzx5a/WTbQnlo7oXOTrft6rKIK37sxlkCML4JKMEXlHqY7zKYGfWpTG0tLkwh4b/0tCQsUwD/xQyeWpNyCphLI4H/zai+60zu1LyoblkYP40l/OuY3s1ekO0Zbm4k9hHubU7eKs38bQQPod+R6Qn0BfDtM02OfVMQ3OAx/zdRv52in/8bv6z+yO9Otc9kt9+HU/8XEnxCHbyVY3vAFKToNEXVovyWLjfzhc/VyYyE88+Cn+jOb19s+logkxA7+fBr23/130labpU8bO5R0d2c8CuQ0+ziVn1cld8aeolifdKXWLL7fmoWfFyx3H/v6sLND/GcgVB4IhH+/QT7xzG9nrZ+00V/UookNxYmdHehBvdO9+wUs/kdOK/DYs0/Undkq27qc78ZfoSz/5dA8+LKKn3vm5r/toBs7Nw4ugqdlHDtTlKyQH3nfxCQ5ug0/34HJgdzqOFbvxsVDy4zc+Dv6yke9/G5W+1OM34HNNCYE31z+E7s8PKdufgsjD5UIhDH81mOLnxPd9/O6+/1BLdX8+pGz/eM8uMjyeezpkxcd/IpyqDSNZxFPxDT6uc0TpEntpb5/DmU8y/F6hjkNTOZzWZkA7wZ0f5T7wa6zNVLbwdoQLEPKESw/MoTs7SMNOxmFKx/CRpz8J0G2/aLcHC3YS1BadK0I42E16eRJH6vFNgdd0/Fc34rDtJXhJCof6jcFD7+VD+O8CExn+1dPCheDB5fF6DCzC/7fxyvBX4Vc1zKcY/qJKXtxWTA4/p9L8qp54B1bwy8qvCXmG/5vRyYOeV+PKDvlAH/wNOvwHsjKG/8FKbOGDRfg3rTQfGeX/eXzESvPb0P35pwReO/RjDP/fxqd0+F+Ff9oO//fz2Vv4J3T46d9ieIVYaW4EqJx7hv+bxf4fY/hbpdnBv2Gl+RcZ3gT+7+/d9/B7rDQfxD+tw99Y4LbS/K24dfgXqJzfVpq/D9qz//k7rZ/BP3Kn9Wb4G4qb4f9W3Dp8El6H/5t5/h+7y75QaW6NxkFb4mb4vxU3wycBHR7bv5wGbivNDYeb4f8+LFSaW6dZ4p/Q4f/JtTR/4dICyGh4Iu5taMRvM/z3CpEGk3s7SSlIOto+w0vx387ORXsjogR1kY7HY/A3IxCiwx+PBGgmb0UhzsQ5gYteEHKZHf6qF5a8JUIH8VGV5o3iIuj1ldvCj+rwP1Izvhbnex98wfB0mMfJz2XSrpBEXdpvfPh9/cmZ+jGpe+t3+vM2JFKIf+ijDUzHkZ8LSJVGnIuzOz9z0fH25ydgr6X7JupH++00mMCFL2ArXZpvYqqBTr4Ct6+79k9hTuD1dNfJO+Tex/JvDA6D778j3sgTBdSiyja/F7R/Wj3OhXZ7dXSW51vwf2HySUxFPUo5a+7f/eLHbT0+W+6I+PTBr8d44QKF2lcszmr/y8Dzc97C9hn+j73GB+IU979A8X6VGaEZNToRp7j1VTz3arCBx5txJLi2RlyA/a8ELvin3h/n+a4om28CCVRjJ3v5vQvEkWhlM1zzZxiCopbE34LUpC4J/SNXcTgEF+AO3H4oJkvhPQzze1U2eWhaye6N/NjKbceivhZ9ay8Y0I7wCH5boUMIoCsqy/YYpBr8//bPo77EgM6/Lr8AF/1lKdHLX6y/j7M1KeUf9t9HyV5+v9aN/M35m+j1X9HfQjOeaY8h89fQSUzFx+kd6DDbBE7npBEv+p/Z8kqGP1eis2/qPz1QWv2767c6ABf+M+M58Wfd27ACicC/LR2D+5/+dzD8CMN3/PP8b8O6+xtJSdTqmj/DEFAiTpTn7J8PlaeY8PRFbfW/2wfQf4fh3yvloDT6HiZRNk41xxswhv8mIPBXJPMbGJ4Cf6Iu32B4c70Fk933CvoWw1viJ1WaX8zwHFbfzuhcs6xwpQ5/VjU5Ge97DP9WtRn4DMOf0uHP1euUwCvDfxpXMfw5MXnB9Qz/duXO1uT/w/Dv4T2G16ZzBPBeQ/5qhv9mLhJdu/tbKTHyhQz/LZXmBMrxhAQCJ6ct0b+yHgSC/oyVhmX6zQwvk9bvyhnE5LtJEFcy/GlrC+KdqMtZpe67DP9OUd8z7WjKP67DXyFHe6ivtNJ8FxdaaXph+PfrdprhT7bAaR3+hB2+Oc/wbzbkSYZ/v7vex1+rw3+H4U/g/8Xw7+CcleZMe/wmgUeismBBv17guXU/3WwBJ6PAGtTzgDsTnduCCxr9PN3JVz9H4cPr1+vwzse817ATdtI6WD3tFDZ2NkA9grcy/DIYjxY+dhD7yR/PW0D94mcOIvbw3r3q8Hqgu/i0A+PF/otRsgqdhrPS+LASL46p7uBD11Lg49AR6B2f8gKPnXzjk9/AMiHR4V9SPpBRFITOtR1eDw+kFKO88MaTCO5r/uvywIee/oQy/Eu4dTRBHPFVpRH/RJ+Zl/dfVXl5OgE5t9ROUsHpF/vD/aLD0ycuIY915374CpUt6qHO4KHh4hAQ+LC0wPwXpx2W8VZ3q5Jx3gUSWWSzutO6n4tUPQpiTtPheeR+i2Br4ORSHOiOdHie3E3gBQy7SG51KdazyTSjU+WLSgNP8X+Np6XTH7eBCXGkgXUbsDy2YMLwi1N6IvjQBcFcQq00i0ZaRCJe49goicOtgghi36Cq+XjcLiKah/+SrK1WchQcEYKHOzvxRQDhxCrGdyCJyUZVGv1hy5Z1HjuwYD4kedEfCFZdlACCmHzIBlJj13e6iQUB5cCwFpe/yA7vvORgAy6gMDz2i7TcdolwFtAWiILBuQggsKPIkwzvwy0De2gz6Nd+Kx0+EdWF9i7q8D4cj3XnER/rHroTBD7uBjj8N2B50C9UmsW5JZbJ0ErjxEZ3O1GPglmEZOByVpoo7ci5gTgE3Nos6vab4E4ieWZhh9+Om8YyvF6+6af+m6nhRNyhgdEUcmIjsveGI7ojSW87lYgILwsg31Bl2dNPTxnoCkc+UHyn9fV0BB4HP6cHwcd5piIsEOrFU/aLQ5l7eUZVGh8snIgQGp17/IzhLWzUJ5eiq81xEChFoiBNtxQTRTpswOpkc6UOvy5RrjxE/6LSENlIQJNYHhwPpC2kpi3LctK5SqZfLw/OZrW+LACvsVbH6/ZYFWidc2J58DrQK06tOMuhmdqiKFr7APNTjuUnnjVaMroIrCCdWMVp8PdUh3jIpkOo3fLz/GRRLJoUJj5uEz20gXJEeIsq0Z8zjiUVPS469MG6RBovijkjnj/gR26prSIOlmwrW+zRAurhvi+CYqlIvPAr2oc4whdzD8nM5Yg9vtVoGfHHnWVnWWLjihni9cPozlpA9pI43D4iBRucbA8LjS82Lo55tMXwMoyZZydnom+IBQd+ifvQzWShNQp6X1rePLmvL3jisxmLqZsm/vRLeA9s6pYdtZORnJpmCewiCWTvfMZZmmU/nX4cJbx9DXSZRyfj5hCqtl7GHWQfNqObsS0xFPXUhcpE4EE3DW3apNzNLgw2Et9DUyuWUzBz9V3rAjMQPoO49IgeRepOYD8hmoa30mpoBZ0FOJURo8gQQ7SJhtOgklfk0b7khSO2h551IQnZ6WGqPfqx9eclqIJO/aVqBVGUsBoncuquoyiuIr2N7OI3sbdk8umDurWF/KoYnH/Vl1fA9fRolbPP2FTUOdapTSn5ijGlE5ZVpnuQlSEvaYMEulyNVgXiYZ8tZkqJ6HJ0UUev4LCgHS+Ee9CShITlKKEHLoCimCsg+4xYc8V6lVer2wpqh87hAoEH+uwq+jcEfszcaxeBXyM7UDZuGuYFPtlEqZ5fwKT0tdpZga8SxcwJfGpEbIzvgFSAUwKflbR+nDJlOYADAp9hXcGUW8k5HBH4axk+J/DpEZHv4LMCLwFei9/XOSFMinaW4ftvM7wh2x5dUuBzwzgRILv6qBl/juFzGR1l+EwvjRmGv1TgTzL8aZVmg+EzNeqnVynlIeafmYZIXIiOCPwqwJRXaVICn2f4VU5ZaoXAZ8pyAFmBz447Kfj3VRqe/g0C/ymG7zcEPsuFSSn9DMOnCnOA4SXRRcofYvhfpcNnivLzOvwxgV8ll+3g0zp8WqXJCmFapckyvNPh42DZvOIA5soTQCLAZ3T4axg+t9ozO+4EWYb/j+nwO7lsSMBZhs9OWlcCz8MTDE+L0GcYfh3gFMMfUWn2y38El+nwmRD/GZUmr8Nfz/B7dTIpfQmSFfhzOnwiwE/q8LlIP2SlyRWDmzzD50YE8bMCn37odNF/ltkizyzDp0t4HcMTJxhe8spE+gbDRyljBJ9h+F9lpcnhKMPnGvyDAq8LWUL0DR3eC4qdUf6Ngm0xfCTPCM1oy1Vf6UeSvRBGOSzwvpVGT6Tt8DvCy2gpK01O4M8yvLkCfkiHz+XyYzo8zu/q8Iz/DYGX5UBx5F0rjQZ0wbEPMTMMHw2QxQokZfjYR5DnwiQtH2f4KNh7DG9BDzD8OtHfzvB7yfyUDk98VqVRyvXImiUZGD/9BmStNFEE/heAww7DL9J/wYZK8xE7fCrAAYFfBzjC8Kuc8gyfu0l3BN9neCnDBQwPfF6Hj2JvWGkiZrTA3EXxcpNWCRrCO5fp8FFCAvS8uTawFnge/qAOf3DSukg5+5q3VE6/ykqTw29l+BC670ocRbEP2OEn9AB/wxCFy9vhB+vMin8O45HR4bdgAV4DZQX+zFqapJUmQeALnDNLntHhr7HS/JQdXkfEdoPzDAReD7bwHYafJe0QPWeHhzYy1l9fI3qGe4+Nl0cEHd6riZzH+rBbDJ+r0UmGx7hcRYMYZvJ6lVMEPyDwr4kyp5zs/n91+D38Kh3+O3da25fmPGCHH7thnJ/F+JyjJyMOWGls+C9Z4DIrDdHvvLNFT7gLURwsy/DxiDBXVuBTAY4w/KooeR3+V9nhM0157E7rnlmSZ84xfN8VYzE+2rEoIlbP2OGZz1iX3dxOXdtCH3LYkACv0lTFOD+GrxK751j4jj+kw0sd7WNIiQZ8I4Z3Do1seF+Hx6mUnGZ1+LUdngnlhOb/y/B7yRxVaTJF+f/daUWEoeu65zhhq4IraeR0+GEc53ksG8Qog7gjQEaHb+puaouv6dkVM4aK+TKeORYQIXSF0P3ClpRQXuRw6WsRg3NLh98X3tSI+BjDmyvgh3T4bzO8IK/DH1RpzLWBEwLvwi+ehqXnrkqDAEM9zW1XjyOuDvHFYJfhNbcG4aHioFEG3y6bOrzveZ7SXxwora1HvhrcjkLQlFkyO19IMXxO4NN2+BMM/1eupdkP9RmGn6DJjNDDsaH00lhDZO3wX+XcfdUzn6ecI3Y+YJakPq/SPhxieIOIrn5tw70GcIeAOBc6vEZcDJTUjacsw+9YaVb+HmcZfpXiL9Hhr7LD50aE9NlHBJ4KTW0aTVebdbLft9IIxj9zWc+IUs+RmWaD8rzAYyhRh58eY/sc5yzDR9d2O8eGUBeRZXiBOwhCv2J4nEpI2QInGV4CLItzhuF/lZUmh99qh3eIp15IgYls6PDGjPCvOFl9thwmC4HfYHgv2og3d8MwQ4enMu9w5E6rFQ3b4LVhpYlUGhcn2vp6xMgK/I9aacwV8EM6/G9aD7+rwzP+KYbnBtNPgTSYJpFl+IKXg+fMf4V+vsHw1Vh14zSiRfRryNvh+76RV9A04uN9ky/7jBm+7yf+02UDnxCyT90f2209nEoy/EErzQK/neH3krlWh9/HhxgeUSrRZ7qHVZa/3PJgOOr6qwG9z5PoQYacDl9CnSma8lXgczo8tr2+SLWa9Y0yig2Gj+8r9XPJAy25k/qEDo+8kkUPSFwCNsZ3QCrAEYZf5fSX6fC5SSvP7NrhiRMCH4cfrMPFL2elqcqvsa7GGgLf1VHYDQmIdHidtD7q9lm/o8NjWjHLdsENa9Hg4YLhTRHpn9El6yfXw78mijF3huHvtTQJnGF44bwOCsySm3N2eAACD4JvaZ0MsrTL8JocyXx6dMXzoB3eoWToftnvJtov5YwZvnmiQHUxjo9i5PvGFCmVJifwO+vhtyOmJ615hjdXwA/p8N9meEGe4bNWGmBXhydOMjxEfurGkfweomd0eAbkOpqqbspFyCMMD3dZsVEaX6E9O7x4ljXNOuNUPWS24WYNEHhzxYgnrd3UT+VU14+RWpt5Jxm+3hMYRFzIqSWUZfhUgFMM/6usNLmMfuBOqwQ4x/CCqo5oGthVaRSQOnmBWRUPxJyVBtmZe8kCOYZvunp81tCeMFceH96WECsvCh4Ghu/HP+B2FHJCjKiYl62WPDdpXcvzAint6j+mw2ea8vtraYgzAo8IZuRbvn1PGX6VnBKWelOHlyhldK81y/C9E/hgqQQO2OHBCjhme4tuo0iJBlNzwwDXrvrR9XqlCPr0+sYTLnM5gU/JaZbhL7vT+qusNDkcZfj9UNdbaTQ0tuIYImNL1kqDoFU1WJjocpCz0iCHEj1nu4BjOnw/VHMf/5VfXocXXsY1AWoQ2N55p5YWZK002zr8NizAIuIRhjdXwA/p8Mfs8Kt2eEFeh88yPM5/wizJZN3XNoqcSuPse3EcIsvwrxEUWR0eBFZQkylF4H24DZUm1uGh5PfT+BypxVO5Ed+3rTQ4tZJT+B1g+HWAUwx/W2nWOKPSAC7OIq4I/Dq1iLDkJDbLQDmGT6QpyDJ89ei6YoZyMqFTfCJpKY11+MdYg7l7XBSK5mtwNvxTVpo4gLlSBL5AakQcYfhViv8xHV7c2/i+lYbxzwi8KvD9JIdwSzr45dfSfIlCU72UaYPynMAzuziK5M59VoenFZ68ULUDXA45hu/B69REoAXF/8Z9nR0+UoOgbyH3KfonNGDN8K92eGmOZTOmcoolrUxJ5X/RSrMfKsvw33jiKRIAJIHvvkoj2RS0CI41gmL6Sg8iZ6VB1A5zTsxzidC6WYanLsN7rc20UDOTUhrr8Gyz/quZy/iPzbyVJoqMvJJFD8jp8GIsNaZwIVOXAJFnKRa/NZvGibOGi8a5R2D4/mugXsel2XF//7fs8DmVhqc/pNJ0aLi6fsxswNrzeo7hQWRjDUqr66/x2YXVNBmGR0VkKJV1XXft07duXofnbJXN1HQQeB8uTctL3q9rKkI9Gd6J9DU6PBBXtx+7Ci05P9GSfmztWGmYJHZoczQ8bzJwJEvoPYZnAC6rHh5oQLSJx3/RSrOPDwl829K8LSburn6IMOGrDL9KzncwBkQNZi/nZ4negdgbMjo8EgTZ6wWcD4J45Bkec862peiizX25TLSjcsph0OE7iGDX93NJkv/CV/FtHd4QBB7DsS4rNiRbMxL4dUZenpkcGrrhzQXGcuSZGnuxpHHgU2SG+D8N/1s6/BGBz87TTwn8goLC/ZgNs6QyI2OMXAdfVfP8IvCJDgbCpLXs5CYrqhNW0iDFjA6PDn7UddEyMzSEJ8Acw/f1H+ZMZQSyXzytUmuG/64dHlF553mFVHsEhscvtAyhJUjl5Hu/xOXgMU6c9i2mfv9FHX4bPL3L8BLgjMBPYBawIDfjCB1DEhLi0fNLhP4DL5EvKe3zGFbE56w0uCQgK/QdlZpoAGcZnssQILMiCeElW+tJKxHp8D3aTO44wWOivUbhGD6KjLySRQ+IdXhzRZPW6omyDWhKNGRou821NPChZ8nHxTgL0lZR+HEewTF8zyvrcxyE4cMNCZz4QTt8DnmG1xGxaJYVPqTSTGzsRysyb92HVHI6/FB3cwuyBrfXczf7DsoxPCh6fkAeuB4h/jvurA4ve7f4pnHdAoE3lwNDvwwDCS0i75DS4c+thw/ptH/AFgObMV6lkbvTKlcgDn7IPIe0eKZyMkmTAPyPTyoFC8XgJxk+h99th8cR9BN23CCeksaGDu9Vmqqe/7R1VT6h0kDmswwf5Jl/wo3LMrsPfUQf4sCdVieycaGyDL8IHZBYS5Nn+ITOEwR+wLg3J+ADpghA5VkMwlXdxhW3aItqGyJJq/5gqvVhHR75a3uLQ3+Ejjt3lICcigQ+RMbW++Z1eIY2QtSI8uVG3XLifYFHeOo0dYP5oHSOSy5vh6//4II6znOH6+87OjxHkpuv+uUFWTu8J2juQjATjSieHC6GgXcGv10rjWy9kxnbwR7DT5jEQ1bA8NBoInVwxw6PVOX5L+6E4vnKQs18m+ERoOmKZz0Iw0OurIgi8FrO70AqocloSXRvbuzeZXhLAFvnI3iD4X3AOIa6zzA8xHxEnwzdc6Je6zPI6/BdO7OTa+go0WPcR3R40HtPwYi01iMMb/BFJA4yvMlFiJjQ4Y3AXVBx6pE6lzq8wbcHLo58rdRAE2/igZhFRJFn8akqaRmqNIjH6YYG2LXDT0VVTAUFXp8BQyRGu9YOr8Vj/wzc+FbxAXbhdXjEQyy5USYpygbIMzwgqyU1XK+S3WsPuLjfUGnqvm2la5CAfHNWmp7Ly/GjGa6tOV9T5Bi+nPkY7IAubjF79Y2X1eGNILDVh1oNqREB3zAMuJcfpcEd7DC89azeeRZIBGLBu+YbVzdppUmbJbXekka49hGabIrhg5WG7F5WYqUxscEWxH+9Di930upR76lr4llToWCp0nCs6s1h72sM74+TcAzPzZ+i4xTzWZAafJOeZfix6ytMW5mOSyBnhx9oh68wBeXnuB0eTeoabDmTzzJ8L3cWy64u/shiAfNdMTwPFwyvstPoo7DOO2GHR16+AXq+anOQW3FoJ6OZ1OCKlxboAzGk6ohNUgSg8sy0MIyN4RmrcsmncvIMjwakuJDdIfRh+F+qw2uVpVuxUfaTjDTAqnQBcmrRt6KMySZEWxhUU+Bpm7Ti10Pa0e28EOpSEcVpHR6ENz4rXI61xZhITqXBoOf4H+cnWP64Ds+kG7VHTq0eCrI6/FeFmhZzUzxQ6T/eFwJvrhjxMBATJtcWsFzOd4/heTGAwFclrnl1bTeDGTHFu766CECBL/Q1DiHg/p1W/NgyHS529TgHW2oiJ6fDE3KnFUIv77JCJIl3NcPrbXSV+rpgHkz+fR0eXUY9IOo04LgOz3BQgJHmhF7DTpLR2GdVGpqB+2KgZoOpqioPGwJvgiJBKPAVbxHyeW56ELtWGqDEONU1NBTxUNwsw1fo5A7xuqHvQtebaId0BDHDf33JmuCeAh88E2tpvBEGaZZQkSdZe8MXI8NbzqQYPho41OHV7BTG/64dXn4i8FJ5GfMSMBrnHl7SEAJSLqoFBF/VeMYKNye+AW+Hx2iqaX/TymCuYb7xuNtGzPBNx0k2ZJ4RXQmP6vDYIqBexgat6xSmv2cEvhczfDM0rQgh5IBJUIePRkTAK6MBIzWbIPCRBERwDM9JK2qBCKLD+9bL2+GrGXEbaDRPRPTq8vriL8WPFR3R3l9UmjXDg0pCUvNUtFMpAh+9RnzFuwgeqttLe4wzZjaxgTLVHkGHRwrK8OTAeeSxnNhjeIShoHPJKBQ8Wtc01rUMj6T4Sgp0Ea7h0Owkc3i+y/Ds6Y5dLdM9X8Asw/O0Z3iAS0SozgDiJ96nGB4CDyf0mkjAkUpOh8cZWS1J/Q5XBn85yOrwMvMvRWdFFXzrZRke8tdNuuqEbWe+C9H2WDK8gAviI6R1eBcJwx891rbIZ5a/N9ETMYWaK5ZnYfjXN1OlJ62UZ0sBc0IIPJuDSy3Ucz2MI0nDmWE2weRKOgmJzaU6PAEe44pCsTJ4JV7H3ap0AXIqMHzDhRBsE2xDbzuG30kHMB2eoTCDq8F1BXch0gmB9+FDY6nXBsN7Kw2g1znO4N0VD8gx/AYO6PAt27rnOzDroNOsBZ6HwZcN1eG6oOzg7iQndXiVZ34HiGzRlUXLxRY+K5PTJeJJK2/b6a27qD3WOjwIyksVzpW+/ehSpHKKzSPNkFgRfx3DMxlJSniFj4wFvMvwrAwK3g+NdJrzfsMOH9CE+2zqf4rhN5C1wxP+ghOQZXggES3P8FRpnviSCzF5Nd8UF8LXMzyn98+KhigxaHnx3LbDA9P4/FN0un4++nOTVF7xFS8JC7A4nZJnhQWLxrnHWtJemvFSOzxShr4uV6qgrhJHzZLmkHGICmNDh0fWSiMlEIHHl4wFhah4jOpw9Twn8Gg3TXaBDTt86L8wdVggx/DaS/YLSeR0eJrhOFGrqPh3heeHDZVmocPLmmC10jgkrTSu9bCd+bi3xIsFPsXwPh3GtUxD3uTHdXsEhidMbrHx/RAtB/UwHZ7nJcxiS1yuw1dyP7HqFpKg4y6XkWf4ph6HhqprM6D7QgnfY3hobrw+o+v1x5eFEmcE3kcYmFig/Q0dPhYUuRBXJXchXM5Ks4W8Di9Pbw8zStkFhve3Rz3kMNbhUwLvrTQxgh1+qJ9t1xS4JtROpaH3HsNrCIdAvikCWI0cuTfBGBYrdS0JDO8C6c7jYh0e8oA5MU0TnGX4zGIlPwkJ6QWeVp8GMt9RNBtvazhmpYHAmyvA36sgzgk86JAYiVeBX8H3HzKSSWtRL68FuwzP0vEZCQ9foQM6vDzTOszdNHWjV+ZSosHUIoYXUe/VSuN896w04Nl5kLv3R3T4qD1spaQsLPDZ51ZLMqS9ySoETOUUWWlAmVyVYTuHaxleLvHUZlCdWBSOqjRxUVhQyH08Uozh9wtMhkcIfrmChR9opjHFnVJpQK4gtFcB2BV4zUVvPNfxFI2JvSSkCDr8RKWEAFXPrXkynjkWiOS5ekxNhy80ubrz9dxQaQLDQ5DlLap83kkOFQkd3ueFNHEpGfDDQfzvhjkrzYw6oVbx28OdShPlg4NYnkta7aia6r/dSsBonHtEOvyAJmznL6p32Dlcux5eyoEe5jgbo77JMrwg0uERQ8wzSzUty/A8jcGFHWUe2hAUeOg1xXMc0QsW+X2Gt+B6NMTttWulUbAa1TyLhdXL/C7DE87FrEO75O3wJe8p49KodzFcq68ZnoeLYQCVBpLQtGB4OSd+KR1ekuJpqDacsGbt8MDr0gK/d/mn2mPB8J29QFCf/9JoqZwiauWN1rL94tsbopewXcfwPhmwGYU9Jj8tRi6jmOFlsgqSX1TphJWGdx2lGwPOqDQsu/IhX7UXom/o8L7/cP2GrNNSW88Ydb4zsgwv2rworWUVEcEBO3yJyyIYlIPc39nNMjwOngXCbDB8DFsPzyCyliay0ki09eBayrMX+Dpqt207vKHj+mogXhefymnJ8J0wPN/UY34iWMmmfwtLAh+7UvTVSGs9qsOLm0c47iHteuXwtcpbaYClDt88mx6XXXSjj3pK4FG6B/QisMyC0vetNJSYmn//wXuKi7F7gOEh7V1RVl9dm2d4d23v9dYiwTUGHhB4czkwiSXDP3igk1bnu83wCgj8ULNZaowWFzLJ8FE6RctWBFfHwfbt8IDczcQ4Foa3i3Uqp8hKw2E/1lXDqzw8LYOLdXimVT9NCiANKrrxuNtBYHjq76ie1CcqXlaH55klw/dTz0c8pb3N+4zAI4IsLnjoa4p8/A0d3gRFgo1dBZbnK+Lj0bPB8F60uxGtNxWgjiES+AM6/NNcfF+Hh4l25EMsGV7aqBFN3vum30vjk+rngSvb+bU3l9B7m+HFv1LdxP7t1hAHcBB5ho/IEAWekcjwJu9hnEd4lbSqQDpxH139XhoUZfDjaYC3lNjPnXcROpYvIJIke1EoHY6upYlDMX/rATq5O8XwjDLUFAC9TajYnbQqxm6AxMsfFIewBxgeaaNZMZcZ8gxvogHYg6l0RKFiWg6IGF6bGZK0CLfH8JQ6exObg0Zd8K6l5qs7cMmD+yvEuvMNsmOH1ySU4XGtZAtZqjsMLw9xM6uCCg3n74wlE7vrGV7hhqFAx10uo6WVJsD7vq/DR6UIjnMMTwEURow7Z1eHV+8RajFH74KO8lYaSLZI99RGRJBneIVV23uudXgexgwfTscdt72W5rVhw2b/iScw2ZOzC6KI5jRJgXcthvQmMbRO+o+GrnqJYewZnpxZjO2jffDecWGFFoFPNv1bWDK8QSf7WrYsw0u0qGMNkoSdBfIMz8CxDm8JhCSAcww/1Y8/fHwJvPEMixXyVpryOVd8Y8GLSpPoYMAJvKz/JrlzpV80ac3r8DjlZDGuco7hNZY/Mse+Dv+aovNO8G5spalSVd9meCuVLNCC5vREC/kKJnJaGMAxDeTNHLuOIBK+lzK8Jolvpa/K9Mfv6vCAvmpCt877BMOLW8e08z0h8Aivt23lPR0j/8dPkVNpcFXg5GxcqTQ5hodrKqDS868r32L4RmosMqFOYs3wxMIOb3suo8aBHafX0lhrwtO9Zti/bhjb1OCKx3ch/9IM6mDTupAWYBHRyTPTlNWjvJNRRYLkx3mESNK4QAgBGnQcIrukr34vjabrbfBS2AMMLwgdW064hlEflVfgqoIJmJXGHaaxEPiS/9XFP+yil3mfYnjGqJqvouI2aPG76+ERh0/pU+DxW9BRhuHhqjFf7YqmxibP8ExbPPkAp085OCHwspMDAZ3xMICD40PayzFohuHhntmt/dDI3uKteBeecXWp1RDR806srk/UQxleXPiVaHlhjHADb2ctDR3+/mo/1h1lQuToOobXZPhsD+bStJrqfRbxfleHF+ME68ObBwHvMzztyj1YUnyc9ymGZ081vMGyIGftg1VysaDQGM6bz94oTmStNNOM7lKlJpq0HmB4tBEOpYr2tD6QZXhWgRYaRGUc551+Lw3P4gempFmS28gMz0uAi+69gsCHU2wTT2XbdngJAiHn24PRPGUl7Crx4mo7RDp8DaUf7YdQ0/hHQ2JztQ4v45c3W7BzzXDALCnFiVSaZhgKqjPVEwMoJJ4TeJ6OtThpknKurrDDy5878U5LTFeHrDT4tfxr4uh/K/MML0+J6gU8DIOcDg/QDjeOfMLnq/TtuRYNHr4MA2HZnhTvsMvwcJRF1bZd2RZcFy9+/CV4N9bhHZYEsMoIYhNoFC3AtVlyayI0RyqnSJcYHmPdtvKUr/7xp1yBrrXSWFJQm1zXqs9RlcbFN3sSZhzou4dvmbcYnhu++xndWkon6RebUwJPebcn/CLB3Rd4ZFM17KlxLkgEkVVig+GDwHvXW3dam2l8sq3LuZy6oDXkGZ61kiK55zsEaR2eR/y1UwtBn6A7PFu0jgu0Z6VxSVWl3px0sMwXEU2e4ceXDarq0LVFUOPjce5g1MqEqB1UM4SGzUFPwQfs8LzO66WeR1KHLMMLfMeW4/zE5zFJmUN3H10tyaHMkP2IizrbXyTCxT0n8KSwju/6QNzJ91XOSgOZYhLudrrHLsOzdE7g+dhs1Lo5Hb4Z2yetfWVbxlQRRkSMMAzYQuZGWkE4VwyPgGFEDKVcSKjaaIOIb4p34+pKoEluVIlTsKnDwxvzEhJFWYz8CGdo4FRO7vqOEANN8K3uFksL1lm9i4jhkVjF2+8mCUwbv3d1+L6mSlPra3QiI6AK/HY6PGMCL4d/niAg8YRW65I5I/ASQV88tIi7a4cXyNt5ZBMjy/AVyohkmXL8nNoRHR59Kv/iBxHxVbZW0CNCDiMrTUjYiz6QXkuD0/wOXfckXQ51x9WopAKJmBhcvj0sqrZIFCxFACrPpuZHYf1BahhH1Ipr6wim4a4ITXitDo/8S0wU5PI/hvtoeZVGCu4ZnqUeZsTipC3SYw6tpbE7rfj1UztXU8P1DVUTXsR0VuBdJDeciJyVxoLGW0Gqg4Eg8AI/p3PI6/A9XxEzFNXcVFHLQeDNFSNieKgU+hgsGk84XE7s32ntigff+gOy5i1Q3xA5hmfUeCfYtsNjHwcEcKg+qZyCpCVyISBbr17vI6g0kNECci5W04JmGpQW6R9VaawoXPDHh1nLiTwfCnhch2c49iJ0+GauxFhDH25OCLykpg5LQrbAhg7vBCX0lcT0R5sM79U3xnTBQ7Q8w5d/ngVvtnTok+NWGi6kGYtHCy7k62n8MpfttTSC9s/YT4+q4i1QCShnYh3eXEHgo5QAf2QBFmdFnhdJ8UB34h2Nc4+FpGkovxFcw/DeDj9R3NFQ0mJlMViXH520mkNeSoM5K71iw+Qbd1rhaDqqsvaLKnmG4ZFer3dXhnh1MCQiKfAxo7lBskCG4RGj17XBUhefQF6Hxzyy7NxzTztPPPHwZRj0tGWFv7sBthleKjVgsjphHt+2GCcoqJYzyfB+XgAVtWQ4uTUZcl/r8DjrZTecs1cWqMcewyME206fH5JWNFynw/tkIO1ypffvU3BmyVxGgeH5byUjbUkNLpkh2nsMD5DhndD77E8JPKKJhUZENSpRVocXVLJiqi59wKwOjyAc6cYBUTxzLBDkeWjZRtDIB/T14sYTA7yUc2ml0cugPtrqkNbhnV8LOuKHDBO05PXgWrYHpBTnF0ZJCvw6I5VnplWKgYZNjQaChzFAKqeI4Sn7qt/GcnO1laYs9S4LOkYM1yzxgdWSUiDP8CBnJCh87td3E8bwofQpKMNrKDI7hV3+fNQNgxMCz/BWnfgBfSfwKygzIpZKelM/uWQqureYYXhA23TChS6aC/Ua4LX46HlzQQlEG4Hcpe18P69Fg4cRw2OPI5RpsSA+yfDSevyiQdoBetNQtFOn91w1QILhNR05r0ODr2MyDyLVHsLwEsLWIONwMeBTOcV3Yfi3lRPaYHFH9lorDcbvKAI/DBB9ud5L6m/q8F/DA1c8xmn49gNfwOMMbwgqTcxbJxgeg4X3nAaI35MPMKB7ZPzs2+FZpfE5FxVaHN9InPMML+p8U4/FOEe1DpwQI5ZntBFaTpbFv3OnFXkJt/eY8QQVatcOD6aXR/wg8KbSxAEWiOWZN+FKNdSGcMbwi4iRPDfTRK2olFv48duDzRXgJQ2BoNNSpxFBoof02NVWGj7fp1cruHjPRbM+KPDm4H1hfSATF8you7NWGp5eCnwjl+CykM6kF2p9SuBBdlUp8kszFxR5SWPXSqPQO63TjG/onxSjAYHAy25oqoaLYeO2M+vha/FFNMxzgA6PTqbQLQTeXDGWw8AEWfQa9UkwPFrPCTy2+ojfwKd8ubyIPvjGfGop+eriuJj5p3Dj4vUI23Z4TYIv2ZtHXO/ap6yX1Igphg86PCaCAK6vnA7KWhr1vpbheU9MFvl3EwrIe2KSuhYjl1FgeL48mJoJCh39pdcZhm+kB+WOq1f9zujww6OY+C4KveFKH6QB5SGtw5ugiD/H/4hOxjdIXc5K07TPqXjWxVgtS5tjeJSooAkfaKpK1BPCRDtKSA5jhmeJ+gleccHSa2ngp/Eo8BWf8GOH+5C7d1p7/pcP9Bk0hk8GSBGAG8b4dk/IUwE+wIAnKVj2iWtJoIeKz+878L+JNSz0m1WktxEEfqJ0DgU4MFrd//ZaGlppJr6YhlWOJD5m+03EWhxUGenqUi/X6nlK4LtxfEB+ZDH3hCbj4ME3Y6VhPsLw8mcI1PUMuwwPVNBkHiMfePJLpYgtho+u7b6NeJV0AVOiwdQ8r2JyACf/YYc780zr8JYUBQj6D1qo4x3QonBz+RTvRmtp5F2qEPjOzYkE60krUg9CI28P5//emMArdhl+obgjpBX6E1aaAGuBeNztIVhpZGJTTqWUWbeEMXwiJwPPxAzfIwkeNNgGz/cFnuEp6wOEsJtwZXW9m9PhcZGbW0xa56mFSpNneN+ZECz2HOYwkViwicyxQJBnXsmlqvyGHs/q8IwF0B7vohO7OjwCTugj9QXMe1+Hr0ZV4PGlxLuQFmAR0eQZfiVUeABDCwI/+UKnBN5LGqQGzSI6zYDqqSdw9Xr4BXz5s1Yawao3F/UHDjF8LPCAd8Oh7lMMr1rKxGVS+HKKJshZaRgDk9ZqHPmWjhA2x/DoIjYprlaQkBDtwHp4QZh2KtYMz8OY4WXjw5hjn+EFPgqhJxJi6KuLOY++1EIUvUAAe2tpcFZeOTLXUGvAHGwjzSk5abWuQWVKrtir2we6m+Gxxe5iHd7aLGwtFwmQyyjS4WMEz7d1eHG4I+97RuCrZyHXZWit7fSlMohUNnR418E84ebwi87JMXwzz91E/Z1s4h9SYzxzLBDLszikG7SbBVmGJ4LbuxJ2eJ9XlLyH+OzdaZ2gwE+m5Kn+q9i0w0sC3diUZYmpwgO08ZT/lSEQIORkMIYP/mB4dZjX1VYagLdZe30uxeX7rh0eh3J3TP5IXb2I/FoanIfA2wEgj/jpxnzgOiHwPdpaXtUIgY8N8TkrDTJi11aYc4k1ziHH8OXzKS8plQeXMaEx7wPr4e3BvnJR541JazwM0Eh6oE9FCvbutCowf9cpPHzMe8Xw8Iyry9ePOju8R6o9ZLhL9Jp/KzNMdVVhwFMwNPvUtcRLGi6R/BR/HhB5tdLI92KGZ6LyfJ+9S1W/QbPaxYLhRX1RHcb7ZnV4wjG8bGS2Ki9jwqHFO6fSmLIKepc7ruxfpLKr0ijI8JjGPzFgQticlUZXIw0TLQ36djlFjuFZJHkhTTBJEvElIGDB8PpuSaDjG5nMP7GWRsy8Hhj/4VhDpfKKlxYIA+gmYN8O380TdBn+kzymNKERF+PcEHR4WUwsq6WB8NaCa++0SoHF+i4bHGo+b+vwvT7NKkNAEhUctdKESLKIppmbWMjfF3gVgAq9RkYHw+taIfrtWWk0l3GWsUK5D9nmGB5ooDdJ/eOZbF6H7/X/2/TFYy7ghkoT6/Dy3mDeWIOYeN8VwyN9lWdrEk7in3yZQxgFKd4N1YUsyL8gyjuVQ5l27PAIhSzmeeQraSZwvZ/q7jK8BIIYQWT0Y14XW2mw0SydCQ4e+L6vwzcyeiv1cd5v6vBQiOQWq/QlCUzrfYrhq2ni7SbeQVc1XguV0eEZrS5EB1p2Tk6HLxlvUgqAIuczyOrwff2AEoSKY4rn7rYAK9bl4ZLh0UjNsy0WBdvX4UFKLdgTk3ggLAZLMXwYOKCIqe4ae0LAhUwRgMozQ6BZ5FuS6FveC9YAiZxedYlIC1bHtTo8Ux3rErpT21J14l1g5vOuDk93j44rMHWTVZOKLMPztAo8W78ZB2F49mX0Sq1TAl//QSKqsmPypK9DRyo5lWZ6cLltyftwbBCXWrKDAS/w1UNeBTI9qYZGFz4N8Fp8f23vv6o/uJLPcwOixs4FTIkGfD3D8z+hnvUkrRUhpcPrnFSG4FQ8oFkPT25C8vsML5fEqeXkBPDtsWmHl4xM4OvyARWv8CpeKidnpdHRp//ETSeP+LtYh0dSTVtXGPCYTqPlkbnk/LYO34wtlTBqYJi8mec7DC/fZh5AdLjogu0m/8eVpwT+qyu5vACH/FNurlSQNDYE3joYQfSBJ+qR/Pmhm7XD64ObwwPR5ujCF3NCQCTP0kQVHwCh22WynrQSgeH7GpOMto6WHOmJbTs8YyN8qw+0umeY5UzKSuM0HqcCDoWo1qE9fIMFOHnuqR9XU9PqrXvZSEA/ziPEkkZVmoXRVLGl45o7rZEdvv4jyz9FpfEpK8PnMop6c/jTcnDHSg5g16f9dESHRxB+62rGRbp9tAWGje/99wVew/dmEXfJA9m1NBKs11dkuhEH7DJ8CFaxR/mGTkN+LY3o7tUsshL4Yc3wPIw1+36iSkN6oGHIvPfs8HCUXy3vwz25CfK6y/CRJdIJomBPh5cWwLVLX34DuKCpnJwugTAMVlq6oemvttJUoFPuo9vowLsM33T6rxcvdsgsw/N00OGxkzfDy99L60nZn2L4NDZ0eBUU8V70q0fWSiOx1zGPMXz5HHuU653Vkv2D/3kOsm4fc9Djd99Lg01LcueDUggHH/VcDa5I4AENJM6AfTv8BlI5JSVNQ2lPXKzDQwAg6phyQYfXZ/sls6M6vJUfpR4KrgmlDh/9P9MhKw0EnlsJ2XfyJi3TZS3yKYZ3MbAPkUE7xxjebxx2GZ5g6EUMQX4tTfkARRfyIPdS4M3lIOlHVpphfBSiw8d/HrHP8Pi2I3X4kZcFH3CX4T0kDZd7uj0CwwNG0cxUd9zmGT44LQply504j2ClwcUHAt9BgYdSGBpZx10uIy/wpbxyrKICv1gNflyHt3BTQYEfCtPqbXOO4fsKSUHEFz2zr8NLdqUk4Q2ZiowOz+I2knIZPQ4AZBm+fKDl2WZ8I8vrWwteEDF801ZtNfGFVfKsjENah6ef+vAPzfh2XmjyoHj40TvD8Ajkz3vHth0+8qIJHoeIrp7ROPfI6hJN+Bfa84gnrTQ466sldTW8IMvwgrg3wfAq/zGr5xke58OkdepqdmHZ6jpZF/eUSoMY+lCP3XYybNjhY2bUOTe3Ua5ZhodblDpRcnzErB1ebzvxYdaylp3CRsRLvDAMcOUo0UactMYCv2+Hr2iCHyYaaYziJbUF71r60WpJga0GC567z7TCKTKuCp84BYsFkQa/loYKQqfZmK6huI7hHcDwqsBHanx23AmCDs8bBqbAk9WdtzH8foE9wzcj1CKZiqF88HDpnBF4RFB3v3jCb0uHV3mWPLn+G4gWShE5Kw0uvfqGwRdKz9rhddKq7bSnw/MwttLIHwxT2PWfta1Ke3b4r7rFFfgxP+c/c1EUHCd6ImEG8eObjzxC+sdn8cA3tEmKAMLI0fRKrhDWA/WIqu3hJa0vixYf2czub1GAi3V4DEUQ+0rgj+rw4iZ6MLwK/OKtBX5E7MAEXkNSK4WQLB7xO8XwX1BVwWTNV0GN1TdZRqVBAZ7t0E0lpGOY3lhLA7mbhZkm3Rnya2nkGWAReL3LqEiJBlOLhoG8dtaE3mFHh7eIA66hYHo5Mq+UZu2ra488jrI+OFpekJ60ilS53CBDbsa0k1PQ4S0QEcvQ1VYakXOls+j6/KYOj50wPN2x3h67N6EqjQEMz/fSaNO41N8VeITuv1rQWPscSj7rEP6Gd0Pgg6DUT4bvmg5kEz/EvcHwfshPEq+AhHNnnoxnjgUieS6f3TTwDYN0q3UKyOrwOICws9jG8IrttTTiU3FJO8Lz9U3w0lCpweUFHme4rGUshhbfFcMvInp5ZtoQIRwNxvE+J9nHWOgSnAYxaCw3l66Hl5JA4OuW+lNUn3d1eFrgvwaSGzo8FPbQndbYDk+Gl7ZENfUsA73P8AjfsgbFIAsXw22HXSsNitHbSim52kWXPC8BS4RJq7j4bwjY6cgnDujwfzBCOGltquideRB4cznwTDQMeJOukTcHxxfDfStN1cnA4gDpWtVj5PfKu/CMq8sWGecCRB8RwP56eJTK/nO2rKPLZJbh5b+7sY/l5gMMP351D+HBV4bPIejwLCOUCLDi+IwK+wbDMyB+5VxbU/KfiRXnVBoKfF/Iq1Gjl7Ds6vCECHw9SzdEs/jsnVaRbP6xEXfhipxleHm2h88vNXWosRPtl3K+MDz4GoVaMPymDs94ncyJe70fNAUdPmZ4c8WTVhH4id+IADbt8NxzaUYht8S4wkgeiJF0U9eSSNJwzh4P1ZV0iqt1eFRu+JrkUN75qtBxtypdgJwKDI8ydqgmh2kVVcpG6k46AARe94zdjOxTRmh8m58UeMpB+5Q3VYaJa9ZKowL/qGicjCauGYY31/CYGC+0S/a9NOFUX0akvhYNHi4Unb4rpYVCO8Fvl+GFRFE5bSKfUop3Q3WrqS2mpiiGGd8QcN0eSF2lCgkPYJsKFAoalafGJUA6p7CWRiBrbsmeHpcyPFKKEwvu9xk+QvDMMjxPe4Zfh1WfkwI/TsMENoMK278y/Aqh/+pimNiz9IkFPsvw0AqHohCdKWb4iBMCRAitTlrxlwoe0OEBd8C9uhN2eCfw6hVvAXHsWWlQl+ezraDBP5+FaImKbTt8Ai5UNM49gqRJKIz6fkJ2IeFr1tLEufji2J54X4dPJnXISiM6/CI6YD6CkwI/t5y0iiH+oMAzlxH9Ksrq6IxXgjWjCQKBd9DnWiqFXRu3y8adVlcjbsNJm0UCa4YnFjq8AQ79ysEmw7vxZQEjR1JO4+rKNQ+7BQXur6UBzHKvFisLm8rJJM1dfph1232G4aNk4OSlOPjouMtlFNvhdSMKhPgI3rTSMC4+OoeN0vmGDo9qYNaU1eGDoIiQk9qh6cUCv8HwXrRFyHkI3S6i9R2GNyc3jd2e9eVaMzwPlzo8PtpwUcjEWhqz0jCUhe5Lerjj5OB61eH5RsBiGqJ3bSYIYCHPevMe83FpgO2cFroE7z1RAYqJ8uq3FvR6J519HBUmy/ASNlJp9L669K+KqyBrpWHQMGlVhMUh5neS4VkDVd4XOrwPECP0n6gxsuGTAuJF7DI8IS4T7yDlB95Lw7MyV4sDbUxaXxh+pQwmGV5bj1ePvpJrCJtD9jzNAGveXTA8SaOglSZ65HHHDq9Ae4gg8L/N9nIKVppmGLqi7VjEz9nhkdSkIiAWCZ/y2zq8TQYp4ZHAG8P74yQcwyOe3PPmW6sAe9YY+I7ASzWO6vDMRSetKukHGD4IPDt2JfCxM8KK6qL/NBKkuBC+Lzq82OIX2F5LI3767zgq8BJENnFe5loIfCsUi4bBSRfSAoSIwJLhrWVkb8GW41wRJK2cuf5TEGsGF1tpAFtIEzoXeFeHh1sGpV6LfGnzDA9A4GVHEw3Xwctq+FYe1NTYJwUek1a+I5fJRAKftdIUGGtmjniL4TFpdc86hUlr1g7Pt44iw/Epe7/6fEOl8b79IKTAJ2UkmhVuzfAQbJVnicg3r2IbMTWwy/DyyKMYvEyVN+yupSG8wEcNsL+WBkLHLYN+juGZvtokWcCQ8Ps6vJY2+n8n4rgOb+F4PZPXoNDHJ35K4GcuGOF/SVZN9Ad0eTs875g+UIKyRFObJwv1IkmKIPDTg9mhd8sqlqCcHb7hDZCWKyaxLwovRhmG7yUa73sIfOH21tJAofmqS0jwNHO1hby8U07sWWmmxxMNhkjD3OL661t3zw4vEAJANOEAV+pErRzD44SdW9yBg++VDB9l/ybDS8z19TrcYxRkrTQ87QTegkJmXzJ/W+AlNCW7x2Ff6x8uK/Z1eESU4c/bR1P0Z3w+wCuCwA+84g9oxGqMLtzZtTSiVPOPEGSE+3Br0eDhC+/LPVbxcL4pHV6n/PzS0ddtWzxmXEF9OyQZ3k9a5QHlCZFkZZfvmFR7LBi+xiBGlPYREWkqp0VnS0A2oIsBXMzwmH5PDa+rBQfwhGk4mybSrPbgGZ4JlNzUsrrAV+EtHV7DTWxUqiA4cN6nGD5ARN++Gzp8SlCip9twsMHwqyGPSsfUkb3TSqwvhBuT1qUOHy0bc96JtTTIC37Sr+6ZO6fSaKgU726M74CsHd79Oas89GgBwzgP8JKmIbiJ78CJwGfKcgBB4HlHoeMTuk+akTDRQ5b46riT7HfgGb7kchBsipkKQXiI+5AOr3Z46RHwK/h9gpcQi0U+JfAubtiJUxl+ldyyg23Ux+FyDC8hNZZ+Ffm1NNxVT9BOxBPwTAghfCMrDRzN3Ek0bTrxTVlpNCn+oNCI0xE1DviN5ZTngVBdDbNC1g6/hAbeZ3gJY6lGiV/H8EyGbVWPbD7Z+mvqmwyPeJioYSsXZ59KXoeXMjiG74eJ2ijvlfdjKzMxOXFC4C3B5ZaOXSuNhNDg2Ac5ArI6fBwvHGQZHjtcdkQZ5yvRHTYmrS8ML9OUlpYa553Q4W06ICH0ET/o8Ny65k3NF14JYLkHUgSwGjn6i8ZjIqcgaQgnZ1+CXGuHZ+Jqi3ALpbSAWYGXUsU6vE6sX5T2o1YabZNGF1rycWYgrLo8w/CIwC8ZLYw/IGulkYh2b0KOFLsMr6Gw9fEc8mtpCOWFYQ7hIPDmipHS4Y+vlgSqkWq16PCtTAB4JsW7vroaFdtSpxkO60krzq6Epm/kHwBdvFROwUqDQBKuYcHER3C1lcaJuk5aUWpJ/ahKE0KobIuVJjTMUSuNZCVBeW+ENRSpd5FPCTyj8J9f5YDVkprtM7wGxSEVHwb3yDK8RJThpEkY1vN64oXq9InGEgzvfNcMT0QMz73+yVNytWQU2efVV51YJdEGvpEEu2tp3MO96UceFxFjecbQ5zmZ49AhAV/GucBRKwLYavh44APX6vBM2QQeWxzp97BKYw7EUbcOAf4ERvj+eA2cMpWGIllxPbw8ByGjwHBKhzdE650Eu2bJ4L2iokgCYkQqjeBVg8m9l0ZE3KQ7ZgeT0uChoRfDAOLPMnHq6nz3dfiaS4vQ+f4iZ6zwWll4RksLWHP4qK3YI6fDW0dQ4EPAFMN7HZ73myUOdYUo8YsZHmnVdY+MfNfB520rDQDZRjtSwiUBxVGGtyjN3MuDa2PTl433PSPwINtpGKaKz/kB+owfKT5npSkRdhiqtpVo/OcvRc5K0zD0UBZPiWYvYgSOMLy+PlgY3iHL8IBRe6k7PbG/lqbhbLWkjUYmrw5xYcwVj29d3Wv3nVzIrB1elhR4AtBoy2orYknj31ZSaPTIcKkdXsB/asAWRbPSYLewjqYgQRcCP/PKGPsA79xpBcqnsDsgT/o5aTulw9fQUvmOImqrgEsrt5amY2CuhFX4VsgxfDUj9PNBFZlwPX9kLQ30LtnH/3C7Fg0eLoeB/MsT5T7UaOdOqxxgbGgDSIuSAPhN8K6vbtV8dUMJEpgLow1Fqj0Cw0OhGQY1dmN27K9AuwwPhaasG7DF+EROYRBfa6Xhpv7DLNl1IWEdd7mMFgLPu5OO4R3eYHhEI4Gh0UiR3dzwzXCKMwKvkFd0LOC07Bcs+y8sKfAh81YaIFbxDHmG19uKmLvE0pxl+F7VdURb/NfYrg5Pe2T5rHntGuL/5Nu900rH1BZcDn98Pbx0w+Bi+U5ICbxneOkZvrlg5i0rWcooqV+rwxO6tEBX1DhkGV4Q92YlPcT/UY5aIcvwPO3s8HCgZg1v6OEXDZyTAo84y0UjxK5K43Jxy0aiXFOMBqjAI5wEdeIf4uXs8CRgNBz114VWDIE3V4xoGDSmwNciec53W4eXb1+X9R/eZUUD679eMWKS4Z0O38vFquezvmK1djmtdXgmD0mSIL2ukaSxW2IZUBRzBTgrjRi2mZFMWu3iw9+1OrwmxS3EPlQnjLtdRAxvDj7fFyVjDO+PkzCGD/F8dW17RuC13VvR4IcmRD9gpQHlFRItvlgcY3jR/F/imWOBiOHd20NxOcfW+Zpou0NADgPDN6woDhrhefNE/RPF1LxM7OT9snD3bAeLF11uHML47oZGnMu1Y0kCcCMHqQ2dxlpSAAKscgqSVnU0SFJo5JBxGPry9fBREYIzK/ASdHm9ZjOaS3eo91KlT0ME3oWLwvuSfUOleVKh9n/hB2TXwxP1g6p49ObBdAcDkcCjiJNk94wqnV1LEyMKFY2ICEtFxzljrxTDOyl7TdC1b5Lho3SgyQDQ4aFret/0pNUJDVLuZk7eRYf3Snwqp1iXGJ7UZ2tM/KeBS/dFLK630ugXmyhdLUYuo1iHdzIbZBfI6vA8HRheiiA/+drmfYG3aOgrWfgda/IbZkkTFPrjBx1etwE5K42A7dEv/XIMzwiWq20EWR1e4Y6wV2f6vTQ8kiBexv2Orph3zRUJvKzZbkfRxleLx0JEQOVZBPWL7/VBPOrjBc08EjCt0gTu5VyB2hYzRP0Zh2vGr9XhtSTyUbfgqEpjDotoZQzJHF9Lg3AaVFKIftydUmkIFfXYFp9jeImnos6tzzfD8FpzbQ/RRekA8mtpZItNw8fnfLg1w/MwwfC9Lvcz7N5pxVa/dqSSCdcew5cDlHiELIuB2riLvW2HF++mKmoGbkTzh0apgXcYHmGrmqtT+qYTvV+Lht/FVhrA0l6kelaHjwpKvGOl0RJo+HgLnFJpEMVusYTHPxzDrxDkGZ3DN1cDiwXTR+606t9cLa57OYZnLH2e9eVf/HIM3/OuB2PrShrnndDhkZf3YzD89GvHicEVtUfXyl/5rIwYe3Z4LqmSdxx5Abf0Uzl5SSuhf3JvRlqPS99asJlS1kojMRc6fGj14DCG38xGTkHg1WFYuU4zvFH7kuGTAr+w0pgus1RpEh0MLHR402VilebAWhoblWyqEGxj0hoNA70xxxsWeizYu9OqMX384EwyfBgkVEjkmVs++u2jr9sDxfcsKWsRKarYaIdIxFROYS0NzTMMArKPr8IX6/AR4mR13OUyWnBZCm8xfBI8c0bgGZH3FBnxgA7v+w9njODfYngm2FuEqY2ulgtO8FhQnd5fLKWpnG+KC+Eb6/B6Y87+LMUhYYdPGWGWSASI5BkCLyYdtG0UbN8OLw3Ty1vYKga0YPE4d3AMjyADVBo+QgO/iJWuv9OaQpbhBenejHDcSrOHkwIv99DBS01sjc/o8MhH5R3RRhpqHQ4wvHQ34qFXfbzcWhqSGe8vDlU9T4P+GzqxodJ4354LMMpqqKbnhK0bYWuGB+/uCjxOLXjXgi4EvpmLqqqGYY4GfVqHDwnVYzPOjFXxvdyueHFOhkjSwBT1PCDKULs/XQY+x/Ax3tbh0zjG8Poipm2cEHiEr/QhtlpfUu6we+OJUIstRMt43pC10jTK79W4uDBkGV5GZdPO7fxo2zkQ+EpKeRgYXkiiHxkNv6D+J9bS7As8kVCSI4HvhunxRB5tW/i3CiwCeASVBg06VU/WiFZhNIFmkCpKJGlVV85/aNhti2dYZnGNlSZ6PDmJozp8pimP3WlditYapxheHuwD3D/5GZThV8lp/9Fb7jvDweePomBZhh+sjIPjbkF+LY2sHMNXn2t1SEtpxPv8pxTq5bLYzvzgkdDhU/K8QIp34+pCIR9ojcAkJXTU3qTVMPFKh1jhTw13GR6F5BOYzAnVC6zxkwyfy+gow++H+ohKE2aA7nKvOGClsZ9E83FzVhrNz/2ieDkdvhz1nqTq8A4m2rEXEN9pHXVm17toujujw6cGVyTwOOdOR01pARYRY4YnfDT7xePcIzC8BhFn2MP1n9LhD6k0H9Lh+dN4UezME0+LfMKgWUhAjHjSKltxhGgHnmn9qrikeID2SpjfWgh5uNTsHxPCT88O2rVrwKSVJtd6K95F8LCWRj7iELik0mtpooR42iL6cZJi+MhKY4lHEYjrGH4vmZ/S4Xn6EwKPJrMosgvRdxnewmK3aHIia4dfZBRiZ9fSQIpFa4UOX7St19HTk9bYSoPZIF+eAUUZO1e49FqaZNED4sFlrnh800vaAz8f8IBKQ7husG3iWuIkzU64hg/hrtHhjzH8qnQBcuoyK425EmD8UwzvIW8O9ThgltStPMMZkGH4EA+aRhQvt5am76u6aDg8uxE7P84g8OZy4JkwDPpqmiX8wNgh2retNIZQXR/XU4gg1R6xSsMiufAhiUROQZfwUXx4wX/RSrMfKsvw555p/ZKb7r3eZ/XxM1YaRlNJl9tOIduMlQYBTdJfJDzH8Ly/SGfM3UCO4fti/kPnq5U1/V6aRFIx9q00aeTs8EmkVZqMpP1lOjzOf0aHZ+uKxNtLnQx5O7x15avApyUgYnh7EINtEqId0OFJCmLMsbc1CExKX+LFw0AedOIz81xN45DU4XMCnxLD6E5rGptrafaAopgrICtp/0UrzT4+IvCIYKsk45U0KBEZfp1aLM+6pGCxsAABsjq8sf0LCeR1eC6ikeybaCyuGZ6HsQ7PNQUVD/U2hvmf0eFTIyLL8KkARxh+lVOW4a/R4a+yw4t7G0etNOZKgPFPCHxP3quHZqiquS6H8PfzubU0UGggIFVVtUVZhTd2ZxkeCs1Q99VQjW1VhUdADqylGdpmmlHOqqr1LRpEmpYXDP9sqrljNL4i2fA+w+NUkuE1ne2I6UlrRqpSOcVWmiT+LisN8RmVRpqpbmf+RVEbJClnhxc6nDTaHCQpy/BCrUMrD3K3c7g6pDlhwfB1Of+Z5abk0y+MyenwlIOmYDRg/uMHWMIOvy/wRBzAXEcZfpFynuF37fAb+C+updlucJ6R9fB7OCXw8uZQRJMXKYboOYHvqcpQ99e9x4YEBJWGCg3joU2iaNm1NNj0aG21tLjH/eCX+59WQp4BZgJ+MF6nw6erG7D5TOseUjndOvwa5wR+rPRR1vCUDpGx0qAnp/QznBsML0Oe+Qz2ROaL0p5neDiCWdH2TrT9sWJhh2e0KJ46d95Ls41vWGkWOMLwq5x+SIf/NsNLwbMC/30dnnhb4DV0X9QllXHZugSya2mg+hdVVVYFdPgq6P45hkfUaUaMkjo8ds57g+G9HT5sF2HWosHDtaKDw9jnfTs8kGT43CBJtcd/n+Fz+D7D8/QnGJ7hIXszlFwu9ZuhxKPr4ZtTaVgcqNNz+3gwmm+FA3daJ+QG3Z/LF4MSn2f4JPI6fBpv6/A8lQhwlOEXEY8wvLkCfpUOv9NQgrwOf4Thd3V4njml0lRDi2T7nn/fr7Ku3pm1NE3F/5Hje2IWry3JMnwzjHwUE5Wx9X6KI2tpUkhLaXoYREjp8O+tlrSgBwR+negphv8rrTT7obIMf+pOazfL2zkWa4+RStZK08qi71X9cwxftfx/p7Wg5u3wSSSVlzcYPkYurx0dfjtiakQcYfhVij+kw/+UHT43IpjORyatfR/eHKrvA1DazevwfIYTjSx/3xvCbVBe0OF7MdPw6Q+dvCpya2m2sDFp3WF4OfGTVprXAGjhrOwmcrqtNGucUmnkFqs+IO16nNuslYb2SK39otN3rTQCiLbK8UJrOsvwyQB5hk+vpUkW3SOVV1bgLcAi4hGGN1dAluH/yvXw5kqA8U8IPML37dCohWaY0eWWQmYtDVB0vVpohvAfJJsSEE1aIftjOzDiGN7ne1qHT6s0Z3T4/cGFUys5hd+H1tL8dobP4VczfD9W3R/eZeXdT2lUJiIMv05N5Vn862l46NOY859w9ydvpRm6SuLRMBTx/j7Db9brJMOf0uHjAObKMvy/aocX9zaM4Ve19OCZT6k0gOgvVC6tNvanNGssmbGz9xXIeyYUuwwvtcBv6GSiAJ6lL3HsP57WWIuGJPw+w6PyOYFPyWlW4FMBTjH8r7LS5DL63To8sI6Wt8MDidzyDB8jJJDmhLwQpietOwyvJ9J2+IzwnrHS/J12+BzyDJ+10gDZMX5e4NfYF/jtbDYob0PgPbJraTaQHhGndPh9oy5OJRn+fR3+gJUmldM/psPz9AcZfg0V+FVyKUFZIG+lSeN7DB+Bh8etNBHyDJ8ozMb4DkgFOMLwq5x+SIc/ZoffaV05lRX4o1aa7VA8c6nAZ600aVzM8Afs8OaKcYrh84MrxfC59khPWm+Gz01aiSzDv32ndSf0vh1+O+J7OnxAhuG3MkyL9nErTRwsJ/ALHd5cRwlgkfIRhjdXwF+mw2cZHuch8HawgV/P8Nul++ZamiiIHO4wvJy4xg4PHGD4daJZhk/dab2tNGv8gA6vHbyTy2mGTwbIqxnfZPgIyCsnvOvC2KR1O7fbDp/EUSvNdiieuZbhD5glE9hl+G2cXkuzEg1piN+jw68D3FYa4Bod/nqGX+FzVpqfZfjEWpr3dHhDVuBvO3wSWR2ep3+DwGsH7+RyMcNTNPbqBIE3V4wTDJ+704pTCzm1oAcEfp3of5/hcxn9bTr8Dj6kw2/Vy0Q7Oi2Hh++0RkBeOeE9wfCpAEcYfpXTD+nwv+m9ND97pzVtpcmbJdMSkLXSpAOkru0LpGn5lA6fNeqm5PQAw68DnGL4X2WlyeH7DM/T1zP8TuhdlWYHH7LDb+GsDn/ZWpqclcYabBHgCMObK+BX6fCZ1j3A8Doi9tPZFXieuZbhf9hKk2Z4isZendYjQhriDMPvDy6cWskp/A4w/Guit5UGOKrDm2sL7wh8pqM2dPhsvIRyTJxm+FyN0qKdE3hvpYmRu5osApjr5Gs68gy/Kkpeob2G4bum3ERTNkNGCLXcU4uwG8CJpumyAo/z/dhZnDWYfFMdH+Mo93bFWKRp407rWFmgBBivTo+IrtjOTiLy/0rX6OtaqraFplI146XauF5IohvAmYRq3Xe1nU8AUZry5Z1TBNtjL6Nke6BWe5WSWlnQgGan9wmI4gUM3xR/MtBnhDIYLPA25C9IM+hHC7yNw1WunhZjE+E1kzHy8fRPNl7L0dnZbawZnmnUdnYbay6Hx/Sws5vANXdVxmyktQl0OJLRCnmpSgm8ndvE4wqB7/hvKVsfoFAizORUImwcMf7w2/INAFn0Uxxv+dFd/Eer+yhHiaKRXz/yTV+rES8OufzIN93qVRwu+Umqhj1fuxoFWn+WLwg09PybmyjQy4fnXrNDqYc4zPLDL7Bu3krbcePDnFLtMe1F4iehN/QTz4Qgrx+K4vcF/saNGzdu3Lhx48aNGzdu3Lhx48aNGzdu3Lhx48aNGzdu3Lhx48aNGzdu/FX4+vofWIPqUB5I/FIAAAAASUVORK5CYII=;" vertex="1" parent="1">
          <mxGeometry x="10" y="150" width="411.15" height="193" as="geometry" />
        </mxCell>
        <mxCell id="xbeDdw1KXENtgyN8etVA-38" style="edgeStyle=orthogonalEdgeStyle;rounded=0;orthogonalLoop=1;jettySize=auto;html=1;exitX=1;exitY=0.5;exitDx=0;exitDy=0;entryX=0;entryY=0.5;entryDx=0;entryDy=0;" edge="1" parent="1" source="xbeDdw1KXENtgyN8etVA-13" target="xbeDdw1KXENtgyN8etVA-15">
          <mxGeometry relative="1" as="geometry" />
        </mxCell>
        <mxCell id="xbeDdw1KXENtgyN8etVA-45" style="edgeStyle=orthogonalEdgeStyle;rounded=0;orthogonalLoop=1;jettySize=auto;html=1;exitX=1;exitY=0.5;exitDx=0;exitDy=0;entryX=0;entryY=0.5;entryDx=0;entryDy=0;" edge="1" parent="1" source="xbeDdw1KXENtgyN8etVA-13" target="xbeDdw1KXENtgyN8etVA-14">
          <mxGeometry relative="1" as="geometry" />
        </mxCell>
        <mxCell id="xbeDdw1KXENtgyN8etVA-46" style="edgeStyle=orthogonalEdgeStyle;rounded=0;orthogonalLoop=1;jettySize=auto;html=1;exitX=1;exitY=0.5;exitDx=0;exitDy=0;entryX=0;entryY=0.5;entryDx=0;entryDy=0;" edge="1" parent="1" source="xbeDdw1KXENtgyN8etVA-13" target="xbeDdw1KXENtgyN8etVA-16">
          <mxGeometry relative="1" as="geometry" />
        </mxCell>
        <mxCell id="xbeDdw1KXENtgyN8etVA-13" value="诊断方法" style="rounded=0;whiteSpace=wrap;html=1;fontSize=14;" vertex="1" parent="1">
          <mxGeometry x="100" y="500" width="120" height="50" as="geometry" />
        </mxCell>
        <mxCell id="xbeDdw1KXENtgyN8etVA-42" style="edgeStyle=orthogonalEdgeStyle;rounded=0;orthogonalLoop=1;jettySize=auto;html=1;exitX=1;exitY=0.5;exitDx=0;exitDy=0;entryX=0;entryY=0.5;entryDx=0;entryDy=0;" edge="1" parent="1" source="xbeDdw1KXENtgyN8etVA-14" target="xbeDdw1KXENtgyN8etVA-17">
          <mxGeometry relative="1" as="geometry" />
        </mxCell>
        <mxCell id="xbeDdw1KXENtgyN8etVA-43" style="edgeStyle=orthogonalEdgeStyle;rounded=0;orthogonalLoop=1;jettySize=auto;html=1;entryX=0;entryY=0.5;entryDx=0;entryDy=0;" edge="1" parent="1" source="xbeDdw1KXENtgyN8etVA-14" target="xbeDdw1KXENtgyN8etVA-18">
          <mxGeometry relative="1" as="geometry" />
        </mxCell>
        <mxCell id="xbeDdw1KXENtgyN8etVA-44" style="edgeStyle=orthogonalEdgeStyle;rounded=0;orthogonalLoop=1;jettySize=auto;html=1;exitX=1;exitY=0.5;exitDx=0;exitDy=0;entryX=0;entryY=0.5;entryDx=0;entryDy=0;" edge="1" parent="1" source="xbeDdw1KXENtgyN8etVA-14" target="xbeDdw1KXENtgyN8etVA-23">
          <mxGeometry relative="1" as="geometry" />
        </mxCell>
        <mxCell id="xbeDdw1KXENtgyN8etVA-14" value="基于模型的方法" style="rounded=0;whiteSpace=wrap;html=1;fontSize=14;" vertex="1" parent="1">
          <mxGeometry x="270" y="375" width="120" height="40" as="geometry" />
        </mxCell>
        <mxCell id="xbeDdw1KXENtgyN8etVA-47" style="edgeStyle=orthogonalEdgeStyle;rounded=0;orthogonalLoop=1;jettySize=auto;html=1;exitX=1;exitY=0.5;exitDx=0;exitDy=0;entryX=0;entryY=0.5;entryDx=0;entryDy=0;" edge="1" parent="1" source="xbeDdw1KXENtgyN8etVA-15" target="xbeDdw1KXENtgyN8etVA-24">
          <mxGeometry relative="1" as="geometry" />
        </mxCell>
        <mxCell id="xbeDdw1KXENtgyN8etVA-48" style="edgeStyle=orthogonalEdgeStyle;rounded=0;orthogonalLoop=1;jettySize=auto;html=1;entryX=0;entryY=0.5;entryDx=0;entryDy=0;" edge="1" parent="1" source="xbeDdw1KXENtgyN8etVA-15" target="xbeDdw1KXENtgyN8etVA-25">
          <mxGeometry relative="1" as="geometry" />
        </mxCell>
        <mxCell id="xbeDdw1KXENtgyN8etVA-49" style="edgeStyle=orthogonalEdgeStyle;rounded=0;orthogonalLoop=1;jettySize=auto;html=1;entryX=0;entryY=0.5;entryDx=0;entryDy=0;" edge="1" parent="1" source="xbeDdw1KXENtgyN8etVA-15" target="xbeDdw1KXENtgyN8etVA-26">
          <mxGeometry relative="1" as="geometry" />
        </mxCell>
        <mxCell id="xbeDdw1KXENtgyN8etVA-15" value="基于知识的方法" style="rounded=0;whiteSpace=wrap;html=1;fontSize=14;" vertex="1" parent="1">
          <mxGeometry x="270" y="505" width="120" height="40" as="geometry" />
        </mxCell>
        <mxCell id="xbeDdw1KXENtgyN8etVA-50" style="edgeStyle=orthogonalEdgeStyle;rounded=0;orthogonalLoop=1;jettySize=auto;html=1;entryX=0;entryY=0.5;entryDx=0;entryDy=0;" edge="1" parent="1" source="xbeDdw1KXENtgyN8etVA-16" target="xbeDdw1KXENtgyN8etVA-28">
          <mxGeometry relative="1" as="geometry" />
        </mxCell>
        <mxCell id="xbeDdw1KXENtgyN8etVA-51" style="edgeStyle=orthogonalEdgeStyle;rounded=0;orthogonalLoop=1;jettySize=auto;html=1;entryX=0;entryY=0.5;entryDx=0;entryDy=0;" edge="1" parent="1" source="xbeDdw1KXENtgyN8etVA-16" target="xbeDdw1KXENtgyN8etVA-29">
          <mxGeometry relative="1" as="geometry" />
        </mxCell>
        <mxCell id="xbeDdw1KXENtgyN8etVA-52" style="edgeStyle=orthogonalEdgeStyle;rounded=0;orthogonalLoop=1;jettySize=auto;html=1;entryX=0;entryY=0.5;entryDx=0;entryDy=0;" edge="1" parent="1" source="xbeDdw1KXENtgyN8etVA-16" target="xbeDdw1KXENtgyN8etVA-30">
          <mxGeometry relative="1" as="geometry" />
        </mxCell>
        <mxCell id="xbeDdw1KXENtgyN8etVA-53" style="edgeStyle=orthogonalEdgeStyle;rounded=0;orthogonalLoop=1;jettySize=auto;html=1;entryX=0;entryY=0.5;entryDx=0;entryDy=0;" edge="1" parent="1" source="xbeDdw1KXENtgyN8etVA-16" target="xbeDdw1KXENtgyN8etVA-31">
          <mxGeometry relative="1" as="geometry" />
        </mxCell>
        <mxCell id="xbeDdw1KXENtgyN8etVA-54" style="edgeStyle=orthogonalEdgeStyle;rounded=0;orthogonalLoop=1;jettySize=auto;html=1;entryX=0;entryY=0.5;entryDx=0;entryDy=0;" edge="1" parent="1" source="xbeDdw1KXENtgyN8etVA-16" target="xbeDdw1KXENtgyN8etVA-32">
          <mxGeometry relative="1" as="geometry" />
        </mxCell>
        <mxCell id="xbeDdw1KXENtgyN8etVA-16" value="基于数据驱动的方法" style="rounded=0;whiteSpace=wrap;html=1;fontSize=14;" vertex="1" parent="1">
          <mxGeometry x="270" y="660" width="130" height="40" as="geometry" />
        </mxCell>
        <mxCell id="xbeDdw1KXENtgyN8etVA-17" value="状态估计" style="rounded=0;whiteSpace=wrap;html=1;" vertex="1" parent="1">
          <mxGeometry x="440.5" y="343" width="157.5" height="27" as="geometry" />
        </mxCell>
        <mxCell id="xbeDdw1KXENtgyN8etVA-18" value="參数估计" style="rounded=0;whiteSpace=wrap;html=1;" vertex="1" parent="1">
          <mxGeometry x="440" y="380" width="158" height="30" as="geometry" />
        </mxCell>
        <mxCell id="xbeDdw1KXENtgyN8etVA-19" value="" style="rounded=0;whiteSpace=wrap;html=1;" vertex="1" parent="1">
          <mxGeometry x="667" y="490" width="120" height="60" as="geometry" />
        </mxCell>
        <mxCell id="xbeDdw1KXENtgyN8etVA-20" style="edgeStyle=orthogonalEdgeStyle;rounded=0;orthogonalLoop=1;jettySize=auto;html=1;exitX=0.5;exitY=1;exitDx=0;exitDy=0;" edge="1" parent="1" source="xbeDdw1KXENtgyN8etVA-18" target="xbeDdw1KXENtgyN8etVA-18">
          <mxGeometry relative="1" as="geometry" />
        </mxCell>
        <mxCell id="xbeDdw1KXENtgyN8etVA-22" value="" style="rounded=0;whiteSpace=wrap;html=1;" vertex="1" parent="1">
          <mxGeometry x="667" y="545" width="120" height="60" as="geometry" />
        </mxCell>
        <mxCell id="xbeDdw1KXENtgyN8etVA-23" value="等价状态" style="rounded=0;whiteSpace=wrap;html=1;" vertex="1" parent="1">
          <mxGeometry x="440.25" y="420" width="158" height="30" as="geometry" />
        </mxCell>
        <mxCell id="xbeDdw1KXENtgyN8etVA-24" value="专家系统的方法" style="rounded=0;whiteSpace=wrap;html=1;" vertex="1" parent="1">
          <mxGeometry x="440" y="470" width="158" height="30" as="geometry" />
        </mxCell>
        <mxCell id="xbeDdw1KXENtgyN8etVA-25" value="模糊推理的方法" style="rounded=0;whiteSpace=wrap;html=1;" vertex="1" parent="1">
          <mxGeometry x="440" y="510" width="158" height="30" as="geometry" />
        </mxCell>
        <mxCell id="xbeDdw1KXENtgyN8etVA-26" value="神经网络的方法" style="rounded=0;whiteSpace=wrap;html=1;" vertex="1" parent="1">
          <mxGeometry x="440" y="550" width="158" height="30" as="geometry" />
        </mxCell>
        <mxCell id="xbeDdw1KXENtgyN8etVA-28" value="故障树的方法" style="rounded=0;whiteSpace=wrap;html=1;" vertex="1" parent="1">
          <mxGeometry x="440" y="600" width="158" height="30" as="geometry" />
        </mxCell>
        <mxCell id="xbeDdw1KXENtgyN8etVA-29" value="统计分析方法" style="rounded=0;whiteSpace=wrap;html=1;" vertex="1" parent="1">
          <mxGeometry x="440" y="640" width="158" height="30" as="geometry" />
        </mxCell>
        <mxCell id="xbeDdw1KXENtgyN8etVA-30" value="粗糙集法" style="rounded=0;whiteSpace=wrap;html=1;" vertex="1" parent="1">
          <mxGeometry x="440" y="680" width="158" height="30" as="geometry" />
        </mxCell>
        <mxCell id="xbeDdw1KXENtgyN8etVA-31" value="信息融合法" style="rounded=0;whiteSpace=wrap;html=1;" vertex="1" parent="1">
          <mxGeometry x="440" y="720" width="158" height="30" as="geometry" />
        </mxCell>
        <mxCell id="xbeDdw1KXENtgyN8etVA-32" value="机器学习法" style="rounded=0;whiteSpace=wrap;html=1;" vertex="1" parent="1">
          <mxGeometry x="440" y="760" width="158" height="30" as="geometry" />
        </mxCell>
        <mxCell id="xbeDdw1KXENtgyN8etVA-35" style="edgeStyle=orthogonalEdgeStyle;rounded=0;orthogonalLoop=1;jettySize=auto;html=1;exitX=0.5;exitY=1;exitDx=0;exitDy=0;fontSize=14;" edge="1" parent="1" source="xbeDdw1KXENtgyN8etVA-15" target="xbeDdw1KXENtgyN8etVA-15">
          <mxGeometry relative="1" as="geometry" />
        </mxCell>
      </root>
    </mxGraphModel>
  </diagram>
</mxfile>
